<svg xmlns="http://www.w3.org/2000/svg" viewBox="0 0 2123.64 2140.04">
  <path d="M741.52 1344.93q-14.36 0-29.23-15.9l2.57-1.8q7.17 7.18 15.38 7.44 9.75 0 14.62-5.13 5.38-3.08 5.38-14.36v-27.7q-13.59 5.91-30.77 5.9-39.75 0-61.54-31.54-16.42-23.6-16.42-54.62a103.16 103.16 0 0 1 9.24-42.83q11-24.36 30-37.69 15.9-10.77 37.95-10.77 20.78 0 32.83 7.94 5.89 2.83 8 2.83 5.11-2.82 5.38-10.77h3.85l3.84 53.59h-3.84q-5.65-20-14.62-30.26-13.08-14.61-33.34-14.62-27.95 0-42.57 25.65-12 21.79-12 51.54 0 24.38 8.08 44.37t21.09 29.39q13 9.34 24.33 9.34a50.14 50.14 0 0 0 15.51-2.44 67.77 67.77 0 0 0 15-7v-56.67a38.27 38.27 0 0 0-2.43-9.11 12.62 12.62 0 0 0-4.36-5.77c-1.8-1.19-5-1.88-9.62-2h-5.64v-4.87h58.72v4.62h-2.51q-8.46 0-13.33 9.48v109.25q-2.05 10.24-7.18 16.41a18.57 18.57 0 0 1-9.49 6.67 71.45 71.45 0 0 1-12.88 1.43Zm180.2-51.52-53.08-79.48a52.33 52.33 0 0 1-9.49.76h-6.92v48.73q0 15.9 3.33 19.74 4.37 5.65 13.08 5.65h6.16v4.61h-66.93v-4.61h5.89q10 0 14.11-6.93 2.31-4.1 2.31-18.46v-109.77q0-15.9-3.08-20-4.37-5.38-13.34-5.39h-5.89v-4.61h44.36v10.28q28.47-10 43.34-7.44a46.08 46.08 0 0 1 24.83 14.85 39.09 39.09 0 0 1 9.49 25.9 41.49 41.49 0 0 1-9.49 27.19q-9.48 11.54-29 16.41l54.11 82.31q14.88 21.55 36.42 27.44l.51 1.54q-33.33 0-51.8-18.2Zm-69.49-87.19h6.67q22.31 0 33.72-9.61t11.41-24.24q0-14.36-7.44-24.23t-22.56-9.88a91.26 91.26 0 0 0-21.8 6.42Zm163.71 20.26 39-106.68h3.84l50.52 141.3q6.15 16.92 11.16 21.93t14 5.77v4.61h-57.44v-4.61q8.72-.51 11.8-3.34a9.3 9.3 0 0 0 3.07-7.18q0-5.38-2.82-14.62l-.77-2.3-66.42-23.85-9.48 25.9q-3.6 9.75-3.59 14.61a9.44 9.44 0 0 0 3.07 7.06q3.08 2.94 13.85 3.72v4.61h-45.9v-4.61q9-1.8 11.79-4.88 5.4-6.15 12.31-24.36l9.24-25.39-32.06-11.54 14.62-3.59Zm68.72 24.88-33.85-92.58-26.15 70.78Zm75.21-127.71h46.16l92.58 119.5v-116.68q1-16.41 14.36-24.11 12.3-6.15 31.8-2.82v4.62h-5.9q-10.77 0-15.39 6.41-2.82 4.62-2.82 18.21v167.45h-4.36l-109.5-136.68v104.38q0 15.65 3.59 19.49 4.62 5.38 14.62 5.39h5.9v4.61h-68.73v-5.13h5.9q10.77 0 15.39-4.36 3.33-4.35 3.33-21.79v-118q-2.57-6.66-5.39-9.48a20 20 0 0 0-10.51-5.39 43.62 43.62 0 0 0-11-1Zm345.22 84.11q0 35.65-18.46 59.49-21.54 25.65-62.06 26.16h-71v-4.61h5.64q9.48 0 13.33-6.67 2.82-4.62 2.82-18.72v-109.76q0-15.63-3.07-20-4.36-5.38-13.08-5.39h-5.64v-4.61h42.83v11a86.47 86.47 0 0 1 43.34-11q27.95 0 52.31 33.08a106.42 106.42 0 0 1 13.04 51.03Zm-108.47 73.34q14.1 3.6 23.59 3.59 25.9 0 42.83-20.38t16.92-55.52q0-35.13-16.92-55.39t-43.6-20.26q-10 0-22.82 10.25Zm-684.13 76.83.12 20.52h-2.34a19.86 19.86 0 0 0-1.86-7 11.9 11.9 0 0 0-4.94-5 17.75 17.75 0 0 0-8.16-1.6h-11.5v87.39q0 6 1.61 7.41a7.62 7.62 0 0 0 5.81 2.35h2.84v2.72h-32.26V1462h3a7.46 7.46 0 0 0 6.06-2.47q1.35-1.86 1.35-7.29v-87.39h-9.88a27.51 27.51 0 0 0-8.16.86 11.27 11.27 0 0 0-5.32 4.2 16.32 16.32 0 0 0-2.59 8.53h-2.35v-20.51h2.35v2h64v-2Zm50.44-.12q11.37 0 24 11.12 11.63 14.22 11.62 28.19a53.84 53.84 0 0 1-7.79 28.43q-5.69 9.63-20.52 14.71a36.8 36.8 0 0 1-9.39 1.48q-23.11 0-34.11-26.33a57.67 57.67 0 0 1-2.48-17.3q0-18.79 13.6-30.91a23 23 0 0 1 10.51-3.58 21.44 21.44 0 0 1 14.56-5.81Zm-11.37 10.88a8.25 8.25 0 0 0 5.32 7.17 11.38 11.38 0 0 1 4.57-1.49c1.89 0 3.05 1.28 3.46 3.84-.17 1.64-2.1 2.88-5.81 3.7q-8.54 0-10.14-12.73-3.82 1.24-7 6.18a59.47 59.47 0 0 0-5.07 24.72q0 21.13 11.37 32.88a19.36 19.36 0 0 0 11.87 4.45q11.61 0 18.79-10a54.3 54.3 0 0 0 6.8-26.57 56.9 56.9 0 0 0-6.56-26.83q-7-10-18-10-8.85-.02-9.6 4.68Zm134.51-22.99v2.23h-2.85q-3.09 0-5.44 4.08a14.76 14.76 0 0 0-2.34 8.65v45.74q0 12.24-3.59 19.53a27.35 27.35 0 0 1-10.63 11.55q-7.05 4.28-18.17 4.27-10.75-.25-15.82-4a20.51 20.51 0 0 1-9.15-10.87 40 40 0 0 1-2.72-13.6v-43.85q-.24-4.08-2.22-5.56a8.93 8.93 0 0 0-4.45-1.73h-2.84v-2.21h30.65v2.23h-2.84c-3 0-5.24.66-6.55 2a10.36 10.36 0 0 0-1.49 5.32v40q0 15.69 7 21.38 5.31 5.19 11 5.19a23.44 23.44 0 0 0 17.3-6.92 42.78 42.78 0 0 0 4.45-19.65v-49.32q0-10.63 10.14-16.07 7.34 0 10.56 1.61Zm60.59 96.04-25.59-38.32a24.78 24.78 0 0 1-4.57.37h-3.34v23.49c0 5.11.53 8.28 1.61 9.51 1.4 1.82 3.5 2.72 6.3 2.72h3v2.23h-32.29v-2.23h2.84q4.81 0 6.8-3.33 1.11-2 1.11-8.9v-52.91c0-5.11-.5-8.32-1.48-9.64q-2.11-2.6-6.43-2.59h-2.84v-2.21h21.38v5q13.72-4.83 20.89-3.59a22.25 22.25 0 0 1 12 7.17 18.85 18.85 0 0 1 4.57 12.49 20 20 0 0 1-4.57 13.1q-4.57 5.55-14 7.91l26.08 39.67q7.17 10.39 17.55 13.23l.25.74q-16.06 0-25-8.77Zm-33.5-42h3.24q10.75 0 16.26-4.63a14.66 14.66 0 0 0 5.5-11.68 18.84 18.84 0 0 0-3.59-11.68q-3.58-4.76-10.87-4.76a43.53 43.53 0 0 0-10.51 3.09Zm60.32-39.81h22.25l44.62 57.6v-56.24q.49-7.9 6.92-11.62 5.93-3 15.33-1.36v2.23h-2.85q-5.19 0-7.41 3.09c-.91 1.48-1.36 4.41-1.36 8.77v80.72h-2.1l-52.78-65.88v50.3c0 5 .57 8.16 1.73 9.4q2.22 2.6 7 2.59h2.85v2.23h-33.09v-2.47h2.81c3.46 0 5.94-.7 7.42-2.1q1.6-2.12 1.61-10.51v-56.86a13.34 13.34 0 0 0-2.6-4.57 9.67 9.67 0 0 0-5.07-2.6 20.89 20.89 0 0 0-5.31-.49Zm110.2 49.55 18.79-51.42h1.86l24.35 68.1c2 5.44 3.77 9 5.37 10.57a10.38 10.38 0 0 0 6.74 2.78v2.23h-27.69v-2.23c2.8-.16 4.7-.7 5.69-1.6a4.49 4.49 0 0 0 1.48-3.46 25.67 25.67 0 0 0-1.36-7l-.37-1.11-32-11.5-4.58 12.49a22.94 22.94 0 0 0-1.73 7 4.55 4.55 0 0 0 1.49 3.4c1 1 3.21 1.55 6.67 1.79v2.23h-22.12v-2.23c2.88-.57 4.77-1.36 5.68-2.34q2.6-3 5.93-11.75l4.45-12.23-15.45-5.57 7-1.73Zm33.13 12-16.32-44.62-12.6 34.11Zm77.47-15.34-20.64-32.75v53.89c.17 5.27.66 8.53 1.49 9.76a5.47 5.47 0 0 0 4.57 2.6h2.22v2.1h-26.08v-2.23h2.35q5.07-.12 6.06-4.57v-63.66q0-5.05-1.86-7.17a6.88 6.88 0 0 0-4.45-2h-2.1v-2.18h17.68l22.74 36.59 25.22-36.59h18.92v1.86h-2.35c-2.89 0-4.9 1-6.06 3.09-.74 1.32-1.11 4.28-1.11 8.9v73.15q0 7.55 1.36 9.39 2.72 3.84 7.79 3.09l.37 1.24q-8.54 3-14.34-2.1a16 16 0 0 1-4.57-11.62v-74.41l-23.24 33.62Zm81.45-41.78v32.39h18q7.05 0 9.4-2.11 3.09-2.84 3.46-9.76h2.22v28.43h-2.22q-.87-5.94-1.73-7.66a7.16 7.16 0 0 0-3.53-3.34 18.08 18.08 0 0 0-7.6-1.24h-18v27.07c0 3.63.16 5.83.49 6.62a3.77 3.77 0 0 0 1.73 1.85 10.56 10.56 0 0 0 4.57.68h13.88c4.7 0 8.07-.33 10.13-1a16 16 0 0 0 6.06-3.83c0-3.63-1.15-7.66-3.46-12.12l6.06.13 7.91 21.26h-70.58v-2.23h2.84a11.75 11.75 0 0 0 5.56-1.36 5.39 5.39 0 0 0 2.6-2.9q.73-1.92.74-8v-26.21h-8.65v-4.2h8.65v-26.7q0-3.83-1.61-5.69-2.22-2.34-7.29-2.34h-2.84v-2.17h63l1 17.92h-2.35c-.91-4.28-1.88-7.23-2.91-8.83a10.19 10.19 0 0 0-4.51-3.77q-2.47-.87-8.53-.87Zm60.05-4.43h22.25l44.62 57.6v-56.24q.49-7.9 6.93-11.62 5.92-3 15.32-1.36v2.23h-2.84q-5.19 0-7.42 3.09c-.9 1.48-1.36 4.41-1.36 8.77v80.72h-2.1l-52.78-65.9v50.3q0 7.54 1.73 9.4 2.24 2.6 7 2.59h2.84v2.23h-33.07v-2.47h2.84q5.19 0 7.42-2.1 1.6-2.12 1.6-10.51v-56.86a13.34 13.34 0 0 0-2.59-4.57 9.75 9.75 0 0 0-5.07-2.6 21 21 0 0 0-5.32-.49Zm161.69-2 .13 20.52h-2.35c-.42-3.29-1-5.64-1.86-7a11.84 11.84 0 0 0-4.94-5 17.75 17.75 0 0 0-8.16-1.6h-11.49v87.39q0 6 1.6 7.41a7.63 7.63 0 0 0 5.81 2.35h2.85v2.72h-32.27V1462h3a7.46 7.46 0 0 0 6.06-2.47c.9-1.24 1.36-3.67 1.36-7.29v-87.39h-9.89a27.51 27.51 0 0 0-8.16.86 11.2 11.2 0 0 0-5.31 4.2 16.32 16.32 0 0 0-2.6 8.53h-2.35v-20.51h2.35v2h64v-2Z" data-name="GrandTournament"/>
  <path d="M2105.25 1010.93c-21.4-2.48-42.84-4.67-64.22-7.37-26.88-3.38-53.69-7.29-80.57-10.64-5.4-.67-5.57-3-4.2-7.1 2.47-7.43 5-14.86 7-22.42 7.6-28.38 13.33-56.91 5.67-86.32-1.1-4.23 1.18-5.66 5.14-6.53 9.12-2 18.14-4.48 27.16-6.91 18.55-5 37-10.34 55.6-15.11 15-3.83 30.09-6.94 45.09-10.6 2-.48 3.67-2.32 5.49-3.54l-.69-2.13c-2.69-.06-5.42-.47-8.06-.13-10.54 1.36-21 3.72-31.56 4.31-34.47 1.91-69 3.17-103.46 4.78-4.73.23-7-1.63-9.13-6a358.84 358.84 0 0 0-43.91-70.88c-3.63-4.53-2.44-6.67 1.6-8.74 8.11-4.16 16.15-8.53 24.56-12 25.23-10.39 50.75-20.11 75.94-30.62 33-13.75 65.75-27.94 98.54-42.11 4.34-1.87 8.27-4.71 12.39-7.11l-1-2.58a50.82 50.82 0 0 0-7.54 1c-20 5.58-39.76 12.05-59.94 16.75-19.49 4.54-39.39 7.24-59.09 10.87a280.63 280.63 0 0 0-102.47 40.54c-5.1 3.3-7.61 2-9.3-3.69-3.23-10.89-5.37-22.51-10.78-32.26-10.66-19.19-23.4-37.22-35-55.93-3.67-5.94-7.36-12.23-9.18-18.87-4.21-15.37-6.83-31.17-10.94-46.56-4.71-17.61-8.92-35.57-16.12-52.18-3.86-8.92-2.07-12 4.9-15.66a37.78 37.78 0 0 0 3.66-2.73q40.23-28 80.44-56c5-3.52 9.71-7.53 14.56-11.31l-1.26-2.42a53.76 53.76 0 0 0-6.81 2.39c-14.43 7.33-28.52 15.39-43.26 22-20.31 9.17-41.19 17.1-61.62 26-5 2.18-7.56 1.72-10.54-2.92-20.9-32.43-52.33-51.78-86.31-67.28-7.36-3.35-7.42-6.78-6-12.63q8.91-35.74 17.8-71.49c2.76-11 5.76-22 8.19-33.14 1-4.72.89-9.7 1.29-14.57l-3.26-.49c-12.92 36.15-25.85 72.3-39.08 109.33-1.56-2.1-3.17-4.12-4.61-6.26-8.36-12.34-15.56-25.69-25.23-36.89-27-31.29-64.06-45.23-102.54-56-13.57-3.8-27.3-7-42.88-11 34.27-70 69.6-138.44 100.82-208.79l-2.66-1.57c-3.11 4.06-6.85 7.78-9.23 12.23-15.94 29.71-37.45 55.51-58.54 81.4-25.82 31.7-45.27 66.45-57.49 105.34-1.42 4.51-3.81 5.69-8.34 5.59-11.43-.26-19.06-7.58-27.27-13.86-23.23-17.79-48.41-31.38-77.66-36.19-4.75-.78-9.56-1.09-14.32-1.76-11.42-1.62-16.67-9.64-14-20.27 4.17-16.46 8-33 11.83-49.55q8.45-37.08 16.46-74.26c.87-4.1.3-8.51.39-12.77l-2.92-.67c-14.19 45.26-34.44 87.75-55.55 129.41-7.17-4.59-13.28-8.14-18.91-12.33-1.76-1.31-3.41-4.58-3.08-6.62 4.63-28.23 9.79-56.38 14.45-84.6 4.18-25.27 8-50.59 11.72-75.93.69-4.7-.07-9.62-.17-14.43l-3.2-.11c-3 11.43-5.52 23-9.18 34.27-6.43 19.72-13.45 39.24-20.43 58.77-7.83 21.92-16 43.73-23.79 65.64-1.51 4.23-3.25 5.23-7.87 3.87-11.58-3.42-23.26-7.29-35.16-8.66-32.95-3.79-64.52 4.19-95.63 13.85-15.46 4.8-30.59 10.67-45.89 16-4.53 1.58-7.89 1.18-12.17-2.51a432.74 432.74 0 0 0-36.16-27.77c-18.55-12.86-37.58-25-56.45-37.41-5.66-3.72-11.45-7.23-17.17-10.84l-1.76 2.5 98.78 85.64c-16.12 6.36-32 12.7-48 18.82-1.43.55-3.44-.07-5.1-.48-23-5.69-46.33-7.79-69.24-1.23-20.56 5.89-40.86 11.34-62.54 9.76-12.72-.92-12.72-.49-10.14-12.54 5.41-25.28 10.84-50.56 16.12-75.88.58-2.74.2-5.69.26-8.54l-3.13-.64c-2.62 8.21-4.91 16.55-7.91 24.61-8.08 22.25-16.89 44.34-24.99 66.66-2 5.62-5.06 8.06-10.8 8.79-17.66 2.22-34.88 6.16-50.8 14.54-4.51 2.37-6.44-.58-8.16-4-11.63-23.33-23.1-46.74-35-69.95q-22.86-44.7-46.29-89.09c-1.72-3.28-4.48-6-6.76-9l-2.28 1.31a45.75 45.75 0 0 0 2 6.83c14.53 31.75 23 65.48 31.65 99.07 6.84 26.55 14.47 52.67 27.68 76.85 2.2 4 1.72 6.2-2.67 9-13.8 8.92-27.32 18.34-40.37 28.34-5.32 4.07-7.57 3.88-11-1.84-12.24-20.42-24.69-40.74-37.55-60.79-20.74-32.19-41.74-64.21-62.74-96.22-2.22-3.38-5.41-6.12-8.15-9.15l-2 1.19a43.46 43.46 0 0 0 1.7 5.83c12.18 27.54 25.67 54.58 36.3 82.7 12.59 33.27 25.46 66.1 46.36 95.26 7.89 11 7 11-.72 21.66-4.21 5.78-10 6.77-15.85 9.09-9.35 3.69-11.21-4.05-15.46-8.26a56.46 56.46 0 0 1-5.67-7.16c-18-24.85-35.83-49.86-54.06-74.56-14.45-19.6-29.31-38.9-44.16-58.2-5.12-6.65-10.79-12.88-16.2-19.31l-2.41 1.66c1.58 3 3.15 6 4.76 8.94 11.3 20.93 23.56 41.4 33.71 62.86 15.91 33.66 29.47 68.5 53.51 97.68.82 1 .82 2.65 1.31 4.39-2.1.67-3.77 1.12-5.39 1.73-17.5 6.52-35.77 11.54-52.33 19.94-33.89 17.2-55.4 46.88-73.28 79.24-9.68 17.51-18.16 35.69-27.07 53.61-1.54 3.09-2.82 5.47-6.72 2.8-5.64-3.86-11.51-7.38-17.13-11.26Q320.4 431.93 238.4 375.32c-2.57-1.77-5.87-2.5-8.82-3.71-.25 2.38.17 3.29.85 3.91 3.19 2.91 6.58 5.6 9.67 8.6 20.72 20.12 42.13 39.62 61.89 60.65 25.47 27.12 51.77 52.93 84.28 71.65 6 3.45 11.72 7.37 17.76 11.19-3.43 4.52-6.08 7.9-8.62 11.37-14.87 20.31-21.22 44.07-27.65 67.85a23.19 23.19 0 0 1-5.79 10.2q-16.17 15.6-33.19 30.28a11.32 11.32 0 0 1-8.69 2.29c-5.35-1.26-10.39-3.89-15.53-6-20.16-8.26-40.16-16.79-60.42-24.73-22.38-8.77-45-17-67.47-25.45q-22-8.21-44-16.19c-1.18-.42-2.83.44-5.85 1 4.61 3.09 7.6 5.38 10.84 7.22 21.56 12.21 43.68 23.54 64.67 36.67 29.42 18.39 57.21 39.49 89.92 52.21 6 2.35 3.8 4.78.46 8.11-19.85 19.79-37.68 41.26-49.59 66.82-12.37 26.53-15.76 54.94-14.56 83.94.27 6.41-2 10.71-7.52 13.6a46.19 46.19 0 0 0-5.89 3.47q-33.56 24.39-67 48.88c-5.81 4.26-11.51 8.67-17.26 13l1.19 2c2.58-1.19 5.24-2.24 7.74-3.6 18.92-10.27 37.78-20.65 56.71-30.88 8.46-4.57 17-8.93 25.61-13.27 2.39-1.21 5-2 7.48-3-.34 2.78-.22 5.71-1.1 8.3-4.52 13.39-11.62 26.38-13.51 40.1-3.94 28.54-2.47 57.26 5.51 85.3 2.08 7.3 1.05 8.88-6.93 9.16-36.5 1.28-73 2.18-109.51 3.73-31.19 1.32-62.35 3.28-93.51 5.09-3.53.21-7 1.28-10.52 1.94l.09 2.06a69.34 69.34 0 0 0 7 1.47c20.7 2.1 41.49 3.54 62.1 6.29 28.64 3.81 57 10.18 85.77 12.44 22.82 1.79 46-.77 69-1.81 3.86-.18 6.33-.26 7.46 4a60.44 60.44 0 0 0 3.07 7.76c1.64 3.87 0 5.88-3.78 6.35q-32.41 4-64.85 8c-18.1 2.15-36.25 3.94-54.33 6.22q-44.94 5.65-89.83 11.8c-4.16.56-8.18 2.15-12.27 3.26.1.89.21 1.78.31 2.67a42.17 42.17 0 0 0 6.11 1.17c34.71 1.48 69.46 2.28 104.12 4.49 28.13 1.79 56.09 4.49 84.17-.89 8.34-1.6 17.19-.76 25.78-.43 1.39.06 4 3.58 3.76 5-3.89 20.12-8.73 40.06-12.28 60.23-7.46 42.54 1.84 81.73 26.14 117.16 5.59 8.15 9.11 16.08 8.62 25.91-.44 8.87-.45 17.76-.63 26l-102.45-68.14-2.79 3.05a54.3 54.3 0 0 1 6.14 4c11.38 9.7 22.61 19.58 34 29.26 18.36 15.59 36.69 31.21 55.26 46.53 8.83 7.29 18.07 13.12 22.71 25.14 13.17 34 38.62 59.21 64.79 83.4 14.15 13.09 29.11 25.3 43.79 37.81 4.79 4.07 5.08 7.38-.24 11.41-12.3 9.33-24.23 19.16-36.52 28.51q-71.14 54.15-142.39 108.19c-3.32 2.53-5.91 6-8.84 9.09l1.51 1.53a24.08 24.08 0 0 0 3.15-1.52c29.79-19.93 62.13-35 94.47-50.15 19-8.91 38-18.15 55.92-28.94 12.94-7.77 24.1-18.47 36.29-27.55 1.8-1.34 6.33-2.1 7.14-1.12 3.21 3.92.53 14.13-3.56 17.87q-49.14 44.93-98.1 90c-1.06 1-1.52 2.61-2.26 3.93l1.33 1.41 79.89-52.43c.36.56.72 1.13 1.07 1.7l-109.23 107.38 1.45 1.49 150.23-99.64c8.77 10.59 16.87 21.56 26.2 31.38 15.64 16.46 33.81 29.91 53.65 41 8.54 4.76 14.74 10.21 16.35 20.9a231.45 231.45 0 0 0 9.08 36.88c7 21.42 14.8 42.55 22.41 63.76 3.34 9.31 7 18.49 10.55 27.74l3.5-1q-6.93-31.42-13.87-62.84c-4.66-21.26-9.26-42.53-14-64.49a58.45 58.45 0 0 1 6.31 2.32c17 8.36 34.23 16.38 50.92 25.35s35.31 16.31 48.71 29c26.27 24.85 49.61 52.83 73.81 79.83 1.76 2 1.75 6.78.79 9.68-3.66 11-8.28 21.72-12.12 32.69-10.09 28.8-20 57.68-29.9 86.53-.66 1.9-1.07 3.89-1.6 5.84l2.15 1.08c2.65-3.81 5.7-7.4 7.89-11.46 8.62-16 16.54-32.48 25.55-48.29s19-31.06 28.6-46.52c2.8-4.53 5.1-3.25 9-.37 14.25 10.43 28.68 20.7 43.73 29.91 13.85 8.47 29.89 11 45.74 13.37 4.27.64 7.34 1.85 6.23 7.24q-11.72 56.86-23.21 113.79c-.56 2.75-.19 5.69-.26 8.55l3.1.76c7.92-21.55 15.34-43.3 23.91-64.58s18.39-42.33 27.65-63.46l3.46 1.1c-17.17 74.92-33.28 150-45.89 226a13.73 13.73 0 0 0 5.24-7c3.19-9.31 5.62-18.93 9.37-28 10.24-24.8 20.43-49.65 31.73-74a347.17 347.17 0 0 0 29.65-102.52c.74-5.71-.86-13.71 2.32-16.62 3.65-3.34 11.42-2.11 17.38-3 28.29-4.37 56.6-8.7 84.86-13.29 7-1.13 10.29 1.2 11.83 8.1a304.93 304.93 0 0 0 8.22 30c7.3 21.8 15 43.48 22.76 65.13 3.09 8.64 6.81 17.05 10.24 25.57l2.87-.83c-9.37-43.11-18.74-86.22-28.31-130.22 1.74-.28 4.72-1.5 7.43-1 12.21 2 24.53 3.82 36.47 7 26 6.87 51.58 15.07 77.59 21.71 34.87 8.89 70.16 14.31 106.07 6.29 4.91-1.1 7.32.78 8.74 4.82 2.6 7.4 5.16 14.82 7.4 22.34 6.68 22.49 13.1 45.06 19.89 67.52.92 3.06 3.35 5.68 5.08 8.5l2-.71a52.94 52.94 0 0 0-.35-7.15c-2-11-4.91-21.84-6.12-32.89-2.46-22.43-4.22-45-5.75-67.46-.19-2.75 2-7.13 4.36-8.36 27.39-14.35 51.69-32.91 75.41-52.53 5.94-4.91 14.24-7.12 21.71-9.88 1.59-.58 5.51 1.33 6.29 3a267 267 0 0 1 10.56 26.06c10.86 32.07 21.23 64.32 32.18 96.37 8.33 24.41 17.18 48.66 26 72.9 1.92 5.27 4.7 10.22 7.08 15.32l2.74-.84c-.11-3.9.27-7.9-.46-11.69-1.13-5.91-3.5-11.6-4.48-17.53-4.36-26.22-8.38-52.5-12.59-78.75-2.77-17.25-4.28-34.87-8.87-51.64-5.32-19.42-13.51-38.06-20.09-57.16-.7-2 .22-6 1.8-7.18 15.89-11.69 32.13-22.91 48.15-34.43 3.28-2.36 6-2.86 8.38.69 4.46 6.75 9.07 13.45 13 20.53 10.47 19.07 20.25 38.53 30.94 57.47 18.8 33.36 38 66.49 57.23 99.61 3.63 6.25 8.17 12 12.29 17.94l1.82-1.13a18.19 18.19 0 0 0-.71-2.68c-5.63-13.17-12.1-26.05-16.77-39.55-10.08-29.17-19.32-58.64-28.76-88-10.11-31.49-26-59.77-46.54-85.63-1.41-1.78-2-6.48-.79-7.74 8.77-9.12 15.09-21 29.19-24.19 9.08-2 17.9-5.52 26.6-9 27.36-10.8 54.9-21.28 78.2-40 3.19-2.57 5.58-3 7 2.17 4.38 16.3 8.72 32.63 13.89 48.69 6.43 20 13.56 39.73 20.63 59.5 1.88 5.24 4.65 10.16 7 15.22l2.37-.69c-1.67-9-3.18-18-5-26.92-4.49-21.82-8.72-43.7-13.85-65.37a347.23 347.23 0 0 0-12.2-40.01c-1.92-5.25-1.7-8.57 1.23-13.15 12-18.72 23.57-37.69 35.08-56.71 3.21-5.32 7.44-6.75 12.43-2.75q47.58 38 95 76.17c3.34 2.67 7.21 4.68 10.84 7 .64-2.83.37-4.41-.55-5.36-7.4-7.68-15.42-14.81-22.31-22.91-19.57-23-38.66-46.37-58-69.52-3-3.54-1.64-5.48 1.45-8 11.13-9.2 22.78-17.94 32.85-28.21 18.86-19.27 29.61-43.34 37-68.94 2-7 3-8 9.63-4.48 21.92 11.65 43.76 23.46 65.76 35q55.53 29 111.26 57.65c2.16 1.11 4.79 1.31 7.19 1.94l1.26-2.39c-5.44-4.11-10.87-8.24-16.34-12.31-20.72-15.42-42.44-29.68-62-46.48-29.58-25.48-60.06-49.09-96.23-64.6-10.4-4.46-11.71-8.28-7.78-18.89 1-2.7 3.29-5.09 5.45-7.13 6.09-5.75 12.72-11 18.55-16.94 3.33-3.42 6-3.8 9.89-1.43 9.75 5.91 19.52 11.8 29.51 17.31q71.53 39.45 143.2 78.65a59.76 59.76 0 0 0 6.34 2.6c0-2.77-.83-4.35-2.09-5.31-10.46-8-21.33-15.45-31.46-23.83-24.85-20.54-48.92-42-74.17-62-14.2-11.27-29.72-21.08-45.46-30.13-6.61-3.8-6-5.32-1.85-10.1 23.62-26.86 39.58-57.49 44.63-93.25.78-5.5 3.76-8.32 8.51-10.57 13.28-6.26 26.66-12.38 39.48-19.49 18.84-10.45 37.22-21.73 55.81-32.62 5.29-3.1 10.66-6.06 16-9.08l-1.42-3.06c-19.9 5.47-37.68 16.59-57 23.58-19.58 7.07-38.55 15.83-58.37 24.09.73-5.62 2.09-11.06 2-16.48-.3-31-.5-61.94-1.62-92.87-1-26.31-4.69-52.73 2.4-78.62 5.07-18.53 11.47-36.71 17.78-54.86.65-1.87 4.7-3.43 7.26-3.58 8.85-.52 17.77 0 26.63-.5q66.55-3.4 133.08-7.17c3.54-.2 7-1.28 10.54-2l-.09-2.27c-4.38-.7-8.75-1.53-13.15-2ZM260.97 1193.57c.33-14.77.66-29.65 1-46.16 5.93 7.41 4.09 40.36-1 46.16Zm1625.82-388.81c2.18 2.41 3.94 3.79 5 5.59 6.42 11.16 12.56 22.47 19 33.61 3.2 5.52 1.94 7.77-4.33 9.38-9.17 2.35-18 5.93-26.77 8.91 2.3-18.7 4.59-37.18 7.1-57.49Zm-130.31-266.38c1.38-1 5.72-.66 6.16.28 3.65 7.8 6.7 15.88 9.91 23.8-6.8-6.1-13.39-11.77-19.51-17.92-.52-.52 1.62-4.87 3.44-6.16Zm-44.35-67.6c9.84 9.37 19.75 18.68 29.19 28.45 2.1 2.17 4.22 7.83 3.24 8.81-3.57 3.6-8.37 6-13 8.48-.5.26-3-2.18-3.81-3.77-4.89-9.65-9.54-19.44-14.32-29.15-2-4.16-4.2-8.25-7.33-14.35 3.77.91 5.3.82 6.03 1.53Zm-66.5-34.85c4.72 2.18 9.26 7.37 11.3 12.26 8.45 20.3 15.88 41 23.77 61.56 1.54 4 3.44 7.93 5.79 13.3-3.2-.79-4.64-.91-5.86-1.5-4.51-2.2-8.7-5.58-13.45-6.69-16.7-3.91-26.51-15.56-35.09-29.1q-17.68-27.92-35.83-55.54c-3.4-5.19-7.41-10-11.15-14.95.46-.64.92-1.29 1.37-1.94 5.61 2 11.27 3.79 16.83 5.9 14.18 5.43 28.58 10.38 42.32 16.7Zm-31-57c-15 1-78.88-31-100-50.11 15.82-5.65 91.28 32.16 99.97 50.11Zm-302.39-92.31c.21-4.22 2.18-8.32 2.79-12.55 1.63-11.24 8.69-14.75 18.58-8.51a207.23 207.23 0 0 1 20.39 14.55c18.86 15.38 40.66 23.38 64.51 26.23 8.94 1.07 16.45 4.36 22.74 10.87 4.39 4.54 9.27 8.62 13.92 12.91l-1 1.51c-7.81-1.29-15.6-2.63-23.42-3.86-19-3-38-5.82-57-8.87-21.32-3.43-40.8-11.78-58.9-23.26-2.04-1.29-2.79-5.98-2.64-9.02Zm-154.27-87.52c17.66-.53 35.4-.85 53 .36 8.58.6 16.92 4.73 25.32 7.44 1.35.43 3.45 1.78 3.43 2.66-.2 9.18-.68 18.36-1.62 27.49 0 .33-6.2 1.24-8.4 0-20.41-11.84-41.54-22-64.34-28.27a96.13 96.13 0 0 0-15.62-2.51c-4.11-.43-8.28-.25-12.42-.34-.07-.9-.15-1.8-.22-2.69 6.92-1.47 13.85-3.92 20.84-4.14Zm15.23 57.43c-29.17 7.52-57.39 9.55-85.08-3.62 8.77-10.09 74.88-7.45 85.05 3.62ZM600.58 380.41c-18.42 24.65-35.4 48.76-64.13 61.27-15.28 6.66-29.63 15.44-44.42 23.21a18.18 18.18 0 0 1-3.69.85c24.69-45.37 60.82-74.18 112.24-85.33ZM344.01 690.2c-10.59 46.44-40.48 80.88-71.52 116.09-.75-30.71 51.91-114.92 71.52-116.09Zm-4.55 99.09-24 45.69c-5.55-9.78-4.87-14.42 1.7-22.09 5.44-6.34 10.33-13.15 15.53-19.7 1.47-1.85 3.16-3.52 4.75-5.27ZM276.4 914.24c-1.24-12.84-5.22-26.19-2.93-38.36 2.07-11 10.24-21.21 19.47-31.86 1.42 9.91 3.42 17.13 3.15 24.26-.19 5.2-3.22 10.35-5.23 15.43-4 10.19-8.2 20.31-12.31 30.46Zm11.31 123.86 3-.4 4.46 14.63-10.55 3.16c1.33-7.48 2.22-12.44 3.11-17.39Zm3.8 57c-4.23-9.88-4.24-9.87 6.69-11.83 12.76-2.28 12.81-2.31 19.31 8.86 4.44 7.65 8.82 15.33 12.95 23.15.79 1.49 1.1 4.4.21 5.45-7.32 8.6-15 16.91-23.27 26.12-5.19-16.9-10-32.51-14.77-48.13a34.47 34.47 0 0 0-1.1-3.57ZM334 1394.19l-29-45.17 2.94-2.09c2.07 2.06 4.28 4 6.19 6.2 5.15 5.93 9.6 12.61 15.39 17.81 7.12 6.39 5.38 14.46 7.27 21.86Zm26.25-211.59c-.76 19.66-3.64 39.25-5.82 58.84-.67 6-2.07 12-3.09 18-1 5.68-2 11.16-9.41 5.46-1.4 20-2.72 38.9-4.05 57.79l-2.35.58c-10.67-12.39-21.14-24.94-32.06-37.1-7.53-8.37-8.27-17.71-7-28.35 2.07-17.62 2.84-35.39 4.45-53.06a177.34 177.34 0 0 1 3.2-20.23 18.7 18.7 0 0 1 3.8-8.1c10.65-12.21 21.56-24.2 32.43-36.22.45-.5 1.32-.63 3.19-1.46 6.08 14.62 17.37 27.34 16.73 43.9Zm7.92 247.34-6.89-14.56 3.15-1.57 7.6 14.19Zm50 40.34c-2.6-2.38-3.24-6.88-4.78-10.41l2.69-1.76c11.33 12.14 24.54 22.47 36 36.82-3 .2-4 .57-4.37.25-9.92-8.15-20.02-16.15-29.49-24.85Zm69.5 161.65c-18-15.63-36-31.24-46.94-53.07-.9-1.81-1.61-4.82-.73-6.21 3.18-5 7.08-9.64 11.86-15.92l41.44 77.79c-3.22-1.46-4.66-1.76-5.63-2.59Zm56.24 10.16c-6.1-10.35-12.51-20.53-18.23-31.09-12-22.23-23.33-44.87-35.71-66.9-4.91-8.74-12-16.25-17.9-24.45-1-1.34-1-3.35-1.49-5 1.58.63 3.5.89 4.68 2 26.25 23.78 41.26 54.51 54 86.78 5 12.62 11.33 24.69 17 37Zm81.48 44c-17.75-12.51-29.16-30.73-39.66-49.4-1.81-3.21-3.8-6.31-7-11.57 9.13 2.59 16.1 4.34 22.93 6.55 26 8.42 52 16.8 77.84 25.69a18.14 18.14 0 0 1 9 8.1c7.58 14.2 14.48 28.76 21.58 43.21.31.61.2 1.43.46 3.68l-12.56-1.88c-12.76-1.92-26.06-2.21-38.12-6.22s-23.89-10.75-34.46-18.21Zm106.68 82.45c-3.28 10.22-7.07 20.28-11.42 32.27l-38.48-45.33c9.15 1.94 16.08 3.54 23.06 4.87 7.44 1.42 15 2.37 22.36 4 1.81.38 4.81 3.26 4.48 4.14Zm107.26 94.68c-.53 2.14-4.62 5.18-6.64 4.89-15.53-2.2-31.33-4.4-44.91-12.88s-26.26-17.79-39.11-27.09c-1.39-1-2-4.52-1.49-6.48 4.21-15.87 8.56-31.72 13.5-47.37.62-2 5.13-4.12 7.57-3.84q21.87 2.55 43.57 6.44c3.45.63 6.74 3.38 9.6 5.76q12.27 10.21 24.05 21c2.24 2.06 3.61 5 5.57 7.89-3.92 17.65-7.5 34.71-11.71 51.63Zm84.22 4.25c-4.63-.1-9.28-.58-13.88-.23-9.84.75-19.66 1.8-29.46 3-3.82.46-7 .37-6.38-4.57 1.3-10.16 2.93-20.27 4.6-31.66l45.7 30.84c-.19.81-.39 1.69-.58 2.57Zm174.33-2.63c6.18-1.35 12-2.44 17.69-3.89 11-2.81 21.93-6.1 33-8.54 2.69-.59 6.57.58 8.82 2.33 5.58 4.35 10.36 9.7 15.78 14.28 5 4.22 10.46 7.91 15.62 12 2 1.56 3.75 3.45 6.27 5.8-13.41 1.68-87.94-14.64-97.18-22.03Zm146 19.74c-2.26.38-5.17.49-7-.66-15.58-9.86-31-20-46.43-30.07-3.54-2.3-7.18-4.43-10.78-6.65v-2.5c7.3-1.47 14.55-3.7 21.92-4.23a173.6 173.6 0 0 1 28.11.47c2.71.25 6.58 3.47 7.38 6.11 3.32 10.85 5.75 22 8.25 33.06.36 1.34-.65 4.3-1.41 4.42Zm44.4-19c-10.35 5.86-10.46 5.71-14.53-5.14s-8.21-15.53 9.51-12.75c7.89 1.24 15.84 2 23.76 3l1.17 2.52c-6.59 4.11-13.08 8.47-19.87 12.31Zm63.13-52.54c-32.44 2-64.13-4-96.08-7.46a10.21 10.21 0 0 1-2.92-.75c-.64-.28-1.12-.9-3.26-2.71 3.83-1 6.39-2.12 9-2.19 30.66-.84 61.34-1.24 92-2.42 10.17-.39 20.28-2.65 31-3.26-9.75 6.43-15.6 17.85-29.7 18.73Zm261.16-142.48c-6.92 5.07-14.19 9.69-21.4 14.36-4.2 2.71-8.52 5.22-12.79 7.82-.68-.79-1.37-1.57-2.06-2.35 6.53-5.64 12.87-11.5 19.65-16.81a92.8 92.8 0 0 1 13.53-8.38c1.62-.87 3.87-.59 5.83-.83-.85 2.05-1.14 4.97-2.72 6.13Zm11-73c-.75 2.13-1.79 4.37-1.75 6.54.21 9.8-4.91 15.1-13.66 18.47-28.27 10.89-51.79 27.81-69.83 52.75-11.41 15.76-24.67 30.28-38 44.51-4.42 4.72-11.69 6.77-17.66 10l-1.47-2.27c3.34-4.28 7-8.34 10-12.89 16.87-26.13 34.38-51.9 50.09-78.71 17.68-30.15 42.22-50.69 75.63-60.81 5.12-1.55 10-3.87 17-6.6-4.1 11.38-7.24 20.12-10.3 28.91Zm42.37-4.23-7 4.4-13 8.1c1-9.45 1.63-16.32 2.74-23.11.15-.91 2.9-1.64 4.54-2 .66-.13 1.68 1 2.37 1.7 3.48 3.59 6.91 7.24 10.35 10.87Zm65.53-55.61 27.82-41.77c1.85 11.55-17.48 41.04-27.77 41.67Zm56.09-282.49c-.66 1.77-2.13 3.23-4.54 6.76-2.76-48-7.69-93.66-13.61-139.17h-4c-.49 5.22-1.14 10.44-1.43 15.68-1.18 20.75-1 41.67-3.67 62.22-3.28 24.89-1 49 4.43 73.17.61 2.7 1.08 5.74 2.63 7.88 6.88 9.49 3.86 19.35 1.74 29.24-3.68 17.08-7.09 34.22-11.11 51.22q-5.07 21.4-11.44 42.5c-.79 2.64-4 5.23-6.73 6.51-39.26 18.38-72.91 45.87-110.11 67.6a23.42 23.42 0 0 0-8.6 9.15l114.53-54.51c0 23.34-49 79.21-75.38 84.33.7-6.75 1.36-13.16 2-19.57l-2.79-.79c-1.79 4.64-4.72 9.18-5.13 13.94-.84 9.73-5.7 14.59-14.58 18-24.3 9.32-48.37 19.28-72.36 29.39-20.32 8.57-33.7 24.68-44.87 43a10.38 10.38 0 0 0-1.25 1.9c-6.66 18.75-21.77 19.72-38.62 20-36 .6-72 2.57-108 4.19-4.27.19-8.49 1.71-12.73 2.61.06.86.13 1.72.19 2.58 3.84.57 7.69 1.67 11.53 1.65 25.87-.17 50.63 7.19 76 10.69 11.86 1.63 24.14.22 36.23.16 2.39 0 4.79-.17 9.11-.34-3.48 5.48-6 9.37-8.43 13.32-16.78 27.43-35.78 53.13-61.33 73-18.79 14.64-40.83 22.74-64.36 24.92-28.75 2.65-57.66 3.6-86.5 5.22-1.13.06-2.3-.52-4.47-2.88l55.7-36.28c-.35-.86-.7-1.72-1-2.58-2.21.17-4.65-.22-6.58.61-24.85 10.68-49.77 21.21-74.38 32.44-29.67 13.54-59 27.79-88.59 41.59-8.73 4.08-17.74 7.53-26.48 11.57-5 2.33-8.88 1.42-13.22-2-4.7-3.69-10.25-6.29-15.43-9.37l-2.38 3.22c3.33 3.14 6.73 6.21 10 9.45a39.15 39.15 0 0 1 3.38 4.45c-1.77 1.25-3.43 3.29-5.33 3.56a18.61 18.61 0 0 1-8.83-.79c-24.4-9.12-48.71-18.49-73.06-27.73q-33.35-12.63-66.73-25.11a40.47 40.47 0 0 0-5.51-1.28c-.33.67-.65 1.33-1 2 18.33 11.12 36.79 22 54.95 33.41s35.47 24.53 56.93 30.25l-.57 2.07c-1.22.65-2.41 1.79-3.67 1.87-21.64 1.44-43 5.86-64.95-.58-20.38-6-39.81-13.63-57.69-24.85-27.67-17.36-54.72-35.71-82.46-53-9.55-5.94-21.33-8.49-30.38-15-22.08-15.82-47.31-18.45-72.94-20.34-6.48-.47-11.34-2.15-14.81-8.5-15.65-28.68-31.75-57.12-47.73-85.62-6.69-11.93-13.36-23.86-20.27-35.66-1.71-2.93-4.3-5.35-6.48-8l-2.09 1.15c3.08 7.82 6.35 15.57 9.18 23.47 5 14 9.77 28.13 14.52 42.24.33 1 0 3.12-.51 3.28a5.62 5.62 0 0 1-4.1-.17c-17.36-9.89-34.11-21-52.09-29.54-16.12-7.65-33.46-12.82-50.5-18.35-4.78-1.55-7.75-3.25-9.9-8-10.28-22.58-20.63-45.15-31.78-67.3-3.45-6.87-9-12.91-14.44-18.51-22.11-22.73-44.85-44.86-66.79-67.75-18.42-19.21-36.74-38.54-50.48-61.72-4.46-7.51-4.12-14.35-1.52-21.68q18.36-51.88 37-103.67c2.3-6.42 5.14-12.66 7.37-19.1 1.07-3.09 1.31-6.47 1.93-9.73l-2.66-.93c-9.72 18-18.61 36.51-29.38 53.87-10.87 17.52-22.31 34.58-27.62 55l-2.35-.39c-.51-2.22-1.35-4.43-1.48-6.67-1.49-26.21 1.14-52 5.59-77.9a651 651 0 0 0 8.37-66.23c1.1-16.15-8-30-15.1-44-4-7.9-9.18-15.18-13-23.14-1.2-2.48-.93-7.16.7-9.28 15.68-20.54 31.82-40.73 47.76-61.08 2.68-3.42 5-7.09 7.55-10.65l-2.12-1.81c-7.48 7.3-15.07 14.49-22.4 21.93-12.64 12.82-25.15 25.77-37.65 38.72-3.52 3.66-5.92 1.88-7.66-1.53-14.89-29.09-30.24-58-38.42-89.93-2.4-9.37-3.56-19.06-5.48-29.68l7.61 2c.08-3.58.51-6.58.16-9.49-3.44-28.62 2.12-55.25 16.21-80.47 11.11-19.89 21.17-40.38 31.72-60.6 11.35-21.75 18.91-44.51 21.17-69.21q4.62-51.82 11.49-103.52c1-7.39 4.34-15.72 9.33-21.07 13.09-14 18.61-31.76 26.74-48.22 4.13-8.38 7.32-17.22 10.94-25.86.39-.93.66-2.56 1.23-2.68q14.63-2.91 29.36-5.29a7.84 7.84 0 0 1 1.28 4.38c-4.9 25.34-10 50.64-15 76q-2.19 11-4.42 21.91l3.36 1.24c2.25-5 4.72-9.82 6.69-14.89q12.69-32.55 25.1-65.2c2.43-6.38 4.66-12.85 6.73-19.36 1.53-4.82 4.18-7.82 9.49-8.49 16.09-2 32.14-4.37 48.22-6.43 12.07-1.54 24.17-2.79 36.23-4.29 1.39-.18 2.69-1.09 4-1.67.12-.76.25-1.52.38-2.28-3.47-.81-6.93-2.19-10.42-2.32-9.64-.37-19.31.07-28.94-.34-15.65-.68-31.28-1.77-46.91-2.76a6.17 6.17 0 0 1-3.46-1.2c-3.38-2.95-.78-19.86 3.4-21.6 6.08-2.53 12.37-4.57 18.44-7.13 5.26-2.21 9.6-3.29 8.9 7.61 6.81-13.43 17.26-16.11 27.76-19.38a442.65 442.65 0 0 0 43.49-15.56c15.11-6.5 25.82-18.77 34.87-32.07 13.11-19.28 25.52-39 38.14-58.63 4-6.22 8.87-10.43 16.56-12.1a365.21 365.21 0 0 0 35.8-10c4.55-1.49 8.47-4.93 12.67-7.48l2.07 1.39-29.64 67.22 2.89 1.51c2.7-4 5.56-7.85 8.09-11.92 15-24.08 29.68-48.31 44.95-72.19 2.61-4.07 7.12-7.25 11.36-9.88 16.36-10.17 32.76-20.32 49.61-29.64 4.74-2.63 11.12-3.58 16.64-3.28 21.55 1.17 43 3.19 64.57 4.8 3.27.24 6.73.55 9.87-.19 33.11-7.79 59.67 7.82 85.9 24.11 11.83 7.34 23 15.72 34.55 23.55a51.71 51.71 0 0 0 5.83 3l2.45-2.82-21-18.95 1.35-2.51c7.44 3.11 14.8 6.42 22.33 9.26s15 5.13 22.58 7.66c.58-1.32 1.17-2.65 1.76-4-15.19-8.27-30.55-16.23-45.51-24.9-15.25-8.84-30.1-18.37-46-28.12a50.52 50.52 0 0 1 5.58-3.24c2.32-1 5-1.29 7.15-2.52 15.53-8.85 29.1-2.58 43.5 4.06 19.7 9.08 40.14 16.58 60.38 24.47 15.37 6 30.71 1.88 45.68-1.71 20.16-4.84 40.06-10.78 60-16.37 6.37-1.79 12-2.1 18 2.19 15 10.89 30.81 20.62 45.41 32 31.68 24.62 67.05 38.81 107 43.7 28.11 3.45 55.84 10 83.7 15.39 3.23.62 6.2 2.57 9.11 5-42.4.79-83.81 8.25-125.76 10.68v3.8c2.73.49 5.43 1.16 8.18 1.44 27 2.73 54 6.09 81 7.81 13.51.86 27.28-.75 40.81-2.29 8.47-1 16.64-4.33 25.09-5.67 2.94-.46 6.81 1.27 9.43 3.15 17.21 12.29 29.92 28.9 41.85 45.94 15.11 21.59 29.18 43.91 43.83 65.83 16.49 24.7 38.6 43.44 63.13 59.76 15 10 29.5 20.65 44 31.28a11.24 11.24 0 0 1 4 6.76c3.43 23.81 6.39 47.68 9.84 71.48 1.14 7.88 3.31 15.61 5 23.41l2.88-.2 1.77-79.81 2.69-1.24c3.34 2.75 7 5.17 10 8.29 12.32 13.1 24.38 26.43 36.59 39.62 11 11.84 9.92 24.87 4.42 38.65-5.15 12.91-10.11 25.9-14.69 39-6.16 17.65-11.86 35.46-17.78 53.2-3.84 11.46-7.74 22.91-11.56 34.38a13.38 13.38 0 0 0-.32 2.78l1.87.89q15-27.2 30-54.39c9.93-17.9 19.91-35.77 30.31-54.47.69 2.13 1.58 3.67 1.62 5.22.69 26.34 1.53 52.69 1.75 79 .1 11.14-1 22.3-1.82 33.42-1.86 24.37 3.62 47.06 13.48 69.33 7.22 16.28 12.18 33.57 18 50.45 7.43 21.5 15.41 42.84 21.87 64.63 4.64 15.67 7.28 32 10.56 48 .49 2.4-.39 5.09-.75 8.76l-68.85-109.3-3 1.39c.52 2.16.58 4.57 1.62 6.43 14.61 26 21.88 55 33.89 82 7.47 16.76 18.23 32.09 28 47.77 2.58 4.14 3.86 7.5 1.15 11.78-12 19-23.93 38.11-36 57.08-14.22 22.4-30.39 43.75-39.82 68.95Zm38.68 125.7c-7.3-20.91 32.79-127.21 53.34-140.31 5.63 43.87-25.77 125.87-53.34 140.31Zm86.16-389.94c-2 6.05-7.69 6.79-12.52 6.34-2.93-.27-6.85-3.34-8.07-6.13-4.55-10.4-7.58-21.46-12.25-31.79-8.33-18.43-5.69-37.73-5.49-56.82 0-2.47 3-6.28 5.37-7.11 13.11-4.52 26.46-8.34 39.76-12.28 4.2-1.24 6.27 1 6.62 5 .85 9.83 1.6 19.67 2.15 26.59-1.21 28.21-7.73 52.35-15.57 76.2Z" class="cls-1" data-name="Shape 1"/>
  <path d="M1559.32 782.29c-5.6-36-10.8-72.31-21-107.08-5.12-17.42-20.56-31.79-31.34-47.54-6.86 24.09-7.29 44.84-10.94 65-10.68 59-45.3 77.9-101.52 57.93-17.92-6.36-25.13-15.52-25.5-36-1-52.53-5.82-105-28-153.82-9.57-21-21.06-41-45.67-49.89 0 22.44.61 43-.16 63.55-.78 20.8-2.12 41.64-4.63 62.29-5.18 42.55-18.8 81.21-54.61 108.38-39.57 30-102 3.27-108.85-46.24-10-72.62-19.92-145.25-31-217.7-4.33-28.33-11.7-56.19-17.69-84.27l-6.35.34c-2.41 8.55-5.7 17-7.08 25.65-14.41 90.47-30.32 180.75-41.8 271.6-4.56 36-28.45 48.83-54.33 61.08-24.33 11.51-45-.83-63.3-17.12-35.06-31.11-45.33-73.14-48.27-117-2.43-36.1-.5-72.5-.5-111.61-33 12.95-47.6 38.35-53.67 65.24-10.62 46.85-16.44 94.85-22.15 142.61-1.77 14.83-4.66 23.89-19.51 30.14-61.4 25.83-100.62 4.11-109.67-62.7-2.49-18.33-2.89-36.94-4.45-58.16-5.77 4.85-9.19 7.12-11.87 10.07-38.6 42.48-44.52 95.29-46.06 149.23-.13 4.58 4 11.41 8.11 13.67 55.26 30.47 60.25 81.6 45.11 132.39-15.67 52.59 16.24 87 31.41 134 10.19-40.9-9.85-88 37.62-105.77 24-9 52.24-6.78 78.62-8.81 37.57-2.89 30.32 40.79 53.47 53.11 7.6-14.26 13.38-29.5 23-41.64 6.32-7.94 19.23-17.3 27.52-15.92 65.45 11 136.2 13.92 166.05 90.89 1.74 4.49 5.11 8.35 8.57 13.86 3.51-5.29 7.26-9 8.69-13.41 14.27-44.34 47.79-65.62 90.07-76.9 8.81-2.35 17.21-6.17 26-8.84 63.14-19.24 74.32-13.74 99.2 48.28.49 1.21 2.53 1.78 5.5 3.75 7.74-13.66 14.52-27.83 23.48-40.44 4.11-5.8 12.51-12.11 18.94-12.07a686.3 686.3 0 0 1 76.9 4.65c22.2 2.64 36 15.9 38.49 39.19 2.26 21.51 4.47 43 7.34 70.67 20.9-51 47.1-91.28 30.37-146.83-16-53 7.62-90.77 54.34-119.1 5.63-3.42 12-13.07 11.12-18.71Zm-482.54 114.38c-16.76.78-48.31-40-48.92-63.28-.6-22.61 22.57-44.65 47.44-45.13 24.37-.48 48.59 21.16 48.89 43.67s-29.92 63.92-47.41 64.74Z" class="cls-1" data-name="Shape 2"/>
  <path d="m1008.03 1617.48-5.89 16.18h-49.61v-2.29q21.89-20 30.82-32.62t8.93-23.13a18.29 18.29 0 0 0-4.9-13.15 15.63 15.63 0 0 0-11.72-5.15 18.32 18.32 0 0 0-11.13 3.63 21.06 21.06 0 0 0-7.29 10.64h-2.29q1.55-11.48 8-17.61a22.25 22.25 0 0 1 16-6.14 23.71 23.71 0 0 1 17.08 6.57 20.78 20.78 0 0 1 6.85 15.5 30.1 30.1 0 0 1-3 12.78q-4.59 10-14.89 21.27-15.43 16.86-19.28 20.34h21.95a60.06 60.06 0 0 0 9.4-.5 12.3 12.3 0 0 0 4.86-2 13.31 13.31 0 0 0 3.79-4.31Zm9.86-25.37q0-14.39 4.34-24.77t11.53-15.47a19.48 19.48 0 0 1 11.54-4q9.67 0 17.36 9.86 9.62 12.21 9.61 33.11 0 14.64-4.21 24.87t-10.76 14.85q-6.54 4.62-12.62 4.62-12 0-20-14.2-6.79-12-6.79-28.87Zm12.15 1.55q0 17.37 4.28 28.34 3.54 9.24 10.55 9.24 3.35 0 6.94-3t5.46-10.08q2.85-10.67 2.85-30.08 0-14.39-3-24-2.23-7.12-5.76-10.1a9.48 9.48 0 0 0-6.14-2 9.75 9.75 0 0 0-7.51 3.78q-4.45 5.15-6.07 16.19a149.71 149.71 0 0 0-1.6 21.71Zm104.99 23.82-5.89 16.18h-49.61v-2.29q21.88-20 30.82-32.62t8.93-23.13a18.29 18.29 0 0 0-4.9-13.15 15.63 15.63 0 0 0-11.72-5.15 18.32 18.32 0 0 0-11.13 3.63 21.06 21.06 0 0 0-7.29 10.64h-2.29q1.54-11.48 8-17.61a22.25 22.25 0 0 1 16-6.14 23.71 23.71 0 0 1 17.08 6.57 20.78 20.78 0 0 1 6.85 15.5 30.1 30.1 0 0 1-3 12.78q-4.59 10-14.89 21.27-15.43 16.86-19.28 20.34h22a60.06 60.06 0 0 0 9.4-.5 12.24 12.24 0 0 0 4.86-2 13.31 13.31 0 0 0 3.79-4.31Zm63.5 0-5.89 16.18h-49.61v-2.29q21.88-20 30.82-32.62t8.93-23.13a18.29 18.29 0 0 0-4.9-13.15 15.63 15.63 0 0 0-11.72-5.15 18.32 18.32 0 0 0-11.13 3.63 21.06 21.06 0 0 0-7.29 10.64h-2.29q1.54-11.48 8-17.61a22.25 22.25 0 0 1 16-6.14 23.71 23.71 0 0 1 17.08 6.57 20.78 20.78 0 0 1 6.87 15.52 30.1 30.1 0 0 1-3 12.78q-4.59 10-14.89 21.27-15.43 16.86-19.28 20.34h22a60.06 60.06 0 0 0 9.4-.5 12.24 12.24 0 0 0 4.86-2 13.31 13.31 0 0 0 3.79-4.31Z" data-name="Layer 5"/>
</svg>