<svg xmlns="http://www.w3.org/2000/svg" xml:space="preserve" viewBox="0 0 2140 2140">
  <style>
    path {
      fill: #000000;
    }
    @media (prefers-color-scheme: dark) {
      path { fill: #ffffff; }
    }
  </style>
  <path d="M749.7 1344.9c-9.6 0-19.3-5.3-29.2-15.9l2.6-1.8c4.8 4.8 9.9 7.3 15.4 7.4 6.5 0 11.4-1.7 14.6-5.1 3.6-2.1 5.4-6.8 5.4-14.4v-27.7c-9.1 3.9-19.3 5.9-30.8 5.9-26.5 0-47-10.5-61.5-31.5-10.9-15.7-16.4-33.9-16.4-54.6 0-14.8 3.1-29.4 9.2-42.8 7.3-16.2 17.3-28.8 30-37.7 10.6-7.2 23.2-10.8 38-10.8 13.9 0 24.8 2.6 32.8 7.9 3.9 1.9 6.6 2.8 8 2.8 3.4-1.9 5.2-5.5 5.4-10.8h3.8l3.8 53.6H777c-3.8-13.3-8.6-23.4-14.6-30.3-8.7-9.7-19.8-14.6-33.3-14.6-18.6 0-32.8 8.6-42.6 25.7-8 14.5-12 31.7-12 51.5 0 16.3 2.7 31 8.1 44.4s12.4 23.1 21.1 29.4c8.7 6.2 16.8 9.3 24.3 9.3 5.3 0 10.5-.8 15.5-2.4 5.3-1.7 10.3-4.1 15-7v-56.7c-.4-3.1-1.2-6.2-2.4-9.1-.9-2.3-2.4-4.3-4.4-5.8-1.8-1.2-5-1.9-9.6-2h-5.6v-4.9h58.7v4.6h-2.5c-5.6 0-10.1 3.2-13.3 9.5v109.2c-1.4 6.8-3.8 12.3-7.2 16.4-2.4 3.2-5.7 5.5-9.5 6.7-4.3 1.1-8.7 1.5-13 1.6zm180.2-51.5-53.1-79.5c-3.1.5-6.3.8-9.5.8h-6.9v48.7c0 10.6 1.1 17.2 3.3 19.7 2.9 3.8 7.3 5.7 13.1 5.7h6.2v4.6h-66.9v-4.6h5.9c6.7 0 11.4-2.3 14.1-6.9 1.5-2.7 2.3-8.9 2.3-18.5v-109.8c0-10.6-1-17.3-3.1-20-2.9-3.6-7.4-5.4-13.3-5.4h-5.9v-4.6h44.4v10.3c19-6.7 33.4-9.1 43.3-7.4 9.7 2.2 18.4 7.4 24.8 14.8 6.2 7.2 9.6 16.4 9.5 25.9.2 9.9-3.2 19.6-9.5 27.2-6.3 7.7-16 13.2-29 16.4l54.1 82.3c9.9 14.4 22.1 23.5 36.4 27.4l.5 1.5c-22.2 0-39.5-6.1-51.8-18.2l-8.9-10.4zm-69.5-87.2h6.7c14.9 0 26.1-3.2 33.7-9.6 7.6-6.4 11.4-14.5 11.4-24.2 0-9.6-2.5-17.6-7.4-24.2-5-6.6-12.5-9.9-22.6-9.9-7.5 1.2-14.8 3.4-21.8 6.4v61.5zm163.7 20.3 39-106.7h3.8l50.5 141.3c4.1 11.3 7.8 18.6 11.2 21.9 3.3 3.3 8 5.3 14 5.8v4.6h-57.4v-4.6c5.8-.3 9.7-1.5 11.8-3.3 2-1.8 3.1-4.5 3.1-7.2 0-3.6-.9-8.5-2.8-14.6l-.8-2.3-66.4-23.8-9.5 25.9c-2.4 6.5-3.6 11.4-3.6 14.6 0 2.7 1.1 5.2 3.1 7.1 2.1 2 6.7 3.2 13.9 3.7v4.6h-46v-4.6c6-1.2 9.9-2.8 11.8-4.9 3.6-4.1 7.7-12.2 12.3-24.4l9.2-25.4-32.1-11.5 14.6-3.6 20.3 7.4zm68.8 24.9-33.8-92.6-26.2 70.8 60 21.8zm75.2-127.7h46.2l92.6 119.5v-116.7c.7-10.9 5.5-19 14.4-24.1 8.2-4.1 18.8-5 31.8-2.8v4.6h-5.9c-7.2 0-12.3 2.1-15.4 6.4-1.9 3.1-2.8 9.2-2.8 18.2v167.4h-4.4L1215 1159.6V1264c0 10.4 1.2 16.9 3.6 19.5 3.1 3.6 8 5.4 14.6 5.4h5.9v4.6h-68.7v-5.1h5.9c7.2 0 12.3-1.5 15.4-4.4 2.2-2.9 3.3-10.2 3.3-21.8v-118c-1.7-4.4-3.5-7.6-5.4-9.5-2.9-2.8-6.5-4.7-10.5-5.4-3.6-.8-7.3-1.1-11-1v-4.6zm345.2 84.1c0 23.8-6.2 43.6-18.5 59.5-14.4 17.1-35 25.8-62.1 26.2h-71v-4.6h5.6c6.3 0 10.8-2.2 13.3-6.7 1.9-3.1 2.8-9.3 2.8-18.7v-109.8c0-10.4-1-17.1-3.1-20-2.9-3.6-7.3-5.4-13.1-5.4h-5.6v-4.6h42.8v11c13.2-7.4 28.2-11.2 43.3-11 18.6 0 36.1 11 52.3 33.1 8.8 15.6 13.3 33.1 13.3 51zm-108.5 73.3c9.4 2.4 17.3 3.6 23.6 3.6 17.3 0 31.5-6.8 42.8-20.4s16.9-32.1 16.9-55.5-5.6-41.9-16.9-55.4-25.8-20.3-43.6-20.3c-6.7 0-14.3 3.4-22.8 10.2v137.8zm-684.1 76.8.1 20.5h-2.3c-.2-2.4-.8-4.8-1.9-7-1.1-2.1-2.8-3.9-4.9-5-2.6-1.2-5.4-1.7-8.2-1.6H692v87.4c0 4 .5 6.5 1.6 7.4 1.5 1.6 3.6 2.4 5.8 2.3h2.8v2.7H670v-2.7h3c2.3.2 4.5-.8 6.1-2.5.9-1.2 1.3-3.7 1.3-7.3v-87.4h-9.9c-2.7-.1-5.5.2-8.2.9-2.2.8-4 2.3-5.3 4.2-1.6 2.5-2.5 5.5-2.6 8.5h-2.3v-20.5h2.3v2h64v-2h2.3zm50.4-.1c7.6 0 15.6 3.7 24 11.1 7.8 9.5 11.6 18.9 11.6 28.2.1 10-2.6 19.9-7.8 28.4-3.8 6.4-10.6 11.3-20.5 14.7-3.1.9-6.2 1.4-9.4 1.5-15.4 0-26.8-8.8-34.1-26.3-1.7-5.6-2.5-11.4-2.5-17.3 0-12.5 4.5-22.8 13.6-30.9 3.2-2 6.8-3.3 10.5-3.6 4-3.7 9.2-5.8 14.6-5.8zm-11.3 10.9c.2 3.2 2.3 6 5.3 7.2 1.4-.8 3-1.3 4.6-1.5 1.9 0 3 1.3 3.5 3.8-.2 1.6-2.1 2.9-5.8 3.7-5.7 0-9.1-4.2-10.1-12.7-2.5.8-4.9 2.9-7 6.2-3.4 7.8-5.2 16.2-5.1 24.7 0 14.1 3.8 25 11.4 32.9 3.3 2.8 7.5 4.3 11.9 4.4 7.7 0 14-3.3 18.8-10 4.5-8.1 6.8-17.3 6.8-26.6.1-9.3-2.2-18.6-6.6-26.8-4.7-6.7-10.7-10-18-10-6 0-9.2 1.6-9.7 4.7zm134.5-23v2.2h-2.8c-2.1 0-3.9 1.4-5.4 4.1-1.7 2.6-2.5 5.6-2.3 8.7v45.7c0 8.2-1.2 14.7-3.6 19.5-2.3 4.8-6 8.8-10.6 11.6-4.7 2.9-10.8 4.3-18.2 4.3-7.2-.2-12.4-1.5-15.8-4-4.2-2.4-7.5-6.3-9.2-10.9-1.7-4.3-2.6-8.9-2.7-13.6v-43.8c-.2-2.7-.9-4.6-2.2-5.6-1.3-1-2.8-1.6-4.5-1.7h-2.8v-2.2h30.7v2.2h-2.8c-3 0-5.2.7-6.5 2-1 1.6-1.5 3.4-1.5 5.3v40c0 10.5 2.3 17.6 7 21.4 3.5 3.5 7.2 5.2 11 5.2 6.5.2 12.7-2.3 17.3-6.9 3-6.1 4.6-12.8 4.5-19.7v-49.3c0-7.1 3.4-12.4 10.1-16.1 4.6 0 8.1.5 10.3 1.6zm60.6 96-25.6-38.3c-1.5.3-3 .4-4.6.4h-3.3v23.5c0 5.1.5 8.3 1.6 9.5 1.4 1.8 3.5 2.7 6.3 2.7h3v2.2H900v-2.2h2.8c3.2 0 5.5-1.1 6.8-3.3.7-1.3 1.1-4.3 1.1-8.9v-52.9c0-5.1-.5-8.3-1.5-9.6-1.4-1.7-3.5-2.6-6.4-2.6H900v-2.2h21.4v5c9.1-3.2 16.1-4.4 20.9-3.6 4.7 1 8.9 3.6 12 7.2 3 3.5 4.6 7.9 4.6 12.5.1 4.8-1.5 9.4-4.6 13.1-3 3.7-7.7 6.3-14 7.9l26.1 39.7c4.8 6.9 10.6 11.3 17.5 13.2l.2.7c-10.7 0-19-2.9-25-8.8l-4.2-5.2zm-33.5-42h3.2c7.2 0 12.6-1.5 16.3-4.6 3.5-2.8 5.6-7.1 5.5-11.7.1-4.2-1.1-8.3-3.6-11.7-2.4-3.2-6-4.8-10.9-4.8-3.6.6-7.2 1.6-10.5 3.1v29.7zm60.3-39.8h22.2l44.6 57.6v-56.2c.3-5.3 2.6-9.1 6.9-11.6 4-2 9.1-2.5 15.3-1.4v2.2h-2.8c-3.5 0-5.9 1-7.4 3.1-.9 1.5-1.4 4.4-1.4 8.8v80.7h-2.1l-52.8-65.9v50.3c0 5 .6 8.2 1.7 9.4 1.5 1.7 3.8 2.6 7 2.6h2.8v2.2h-33.1v-2.5h2.8c3.5 0 5.9-.7 7.4-2.1 1.1-1.4 1.6-4.9 1.6-10.5v-56.9c-.6-1.7-1.4-3.2-2.6-4.6-1.4-1.4-3.2-2.3-5.1-2.6-1.7-.4-3.5-.6-5.3-.5l.3-2.1zm110.2 49.6 18.8-51.4h1.9l24.3 68.1c2 5.4 3.8 9 5.4 10.6 1.8 1.7 4.2 2.7 6.7 2.8v2.2h-27.7v-2.2c2.8-.2 4.7-.7 5.7-1.6 1-.9 1.5-2.1 1.5-3.5-.1-2.4-.6-4.7-1.4-7l-.4-1.1-32-11.5-4.6 12.5c-.9 2.2-1.5 4.6-1.7 7 0 1.3.5 2.5 1.5 3.4 1 1 3.2 1.6 6.7 1.8v2.2h-22.1v-2.2c2.9-.6 4.8-1.4 5.7-2.3 1.7-2 3.7-5.9 5.9-11.8l4.4-12.2-15.4-5.6 7-1.7 9.8 3.5zm33.1 12-16.3-44.6-12.6 34.1 28.9 10.5zm77.5-15.4-20.6-32.8v53.9c.2 5.3.7 8.5 1.5 9.8 1 1.6 2.7 2.6 4.6 2.6h2.2v2.1H1164v-2.2h2.3c3.4-.1 5.4-1.6 6.1-4.6v-63.7c0-3.4-.6-5.8-1.9-7.2a6.89 6.89 0 0 0-4.4-2h-2.1v-2.2h17.7l22.7 36.6 25.2-36.6h18.9v1.9h-2.3c-2.9 0-4.9 1-6.1 3.1-.7 1.3-1.1 4.3-1.1 8.9v73.2c0 5 .5 8.2 1.4 9.4 1.8 2.6 4.4 3.6 7.8 3.1l.4 1.2c-5.7 2-10.5 1.3-14.3-2.1-3-3.1-4.7-7.3-4.6-11.6v-74.4l-23.2 33.6h-4zm81.4-41.7v32.4h18c4.7 0 7.8-.7 9.4-2.1 2.1-1.9 3.2-5.1 3.5-9.8h2.2v28.4h-2.2c-.6-4-1.2-6.5-1.7-7.7-.8-1.5-2-2.7-3.5-3.3-2.4-1-5-1.4-7.6-1.2h-18v27.1c0 3.6.2 5.8.5 6.6.3.8 1 1.5 1.7 1.8 1.5.6 3 .8 4.6.7h13.9c4.7 0 8.1-.3 10.1-1 2.3-.8 4.4-2.1 6.1-3.8 0-3.6-1.2-7.7-3.5-12.1l6.1.1 7.9 21.3h-70.6v-2.2h2.8c1.9 0 3.8-.5 5.6-1.4 1.2-.6 2.1-1.6 2.6-2.9.5-1.3.7-3.9.7-8V1401h-8.7v-4.2h8.7v-26.7c0-2.6-.5-4.4-1.6-5.7-1.5-1.6-3.9-2.3-7.3-2.3h-2.8v-2.2h63l1 17.9h-2.3c-.9-4.3-1.9-7.2-2.9-8.8-1.1-1.7-2.7-3-4.5-3.8-1.6-.6-4.5-.9-8.5-.9l-22.7.1zm60.1-4.5h22.2l44.6 57.6v-56.2c.3-5.3 2.6-9.1 6.9-11.6 3.9-2 9.1-2.5 15.3-1.4v2.2h-2.8c-3.5 0-5.9 1-7.4 3.1-.9 1.5-1.4 4.4-1.4 8.8v80.7h-2.1l-52.8-65.9v50.3c0 5 .6 8.2 1.7 9.4 1.5 1.7 3.8 2.6 7 2.6h2.8v2.2h-33.1v-2.5h2.8c3.5 0 5.9-.7 7.4-2.1 1.1-1.4 1.6-4.9 1.6-10.5v-56.9c-.6-1.7-1.4-3.2-2.6-4.6-1.4-1.4-3.2-2.3-5.1-2.6-1.7-.4-3.5-.6-5.3-.5l.3-2.1zm161.7-2 .1 20.5h-2.3c-.4-3.3-1-5.6-1.9-7-1.1-2.1-2.8-3.9-4.9-5-2.6-1.2-5.4-1.7-8.2-1.6H1477v87.4c0 4 .5 6.5 1.6 7.4 1.5 1.6 3.6 2.4 5.8 2.3h2.8v2.7H1455v-2.7h3c2.3.2 4.5-.8 6.1-2.5.9-1.2 1.4-3.7 1.4-7.3v-87.4h-9.9c-2.7-.1-5.5.2-8.2.9-2.2.8-4 2.3-5.3 4.2-1.6 2.5-2.5 5.5-2.6 8.5h-2.3v-20.5h2.3v2h64v-2h2.2z"/>
  <path d="M2113.5 1010.9c-21.4-2.5-42.8-4.7-64.2-7.4-26.9-3.4-53.7-7.3-80.6-10.6-5.4-.7-5.6-3-4.2-7.1 2.5-7.4 5-14.9 7-22.4 7.6-28.4 13.3-56.9 5.7-86.3-1.1-4.2 1.2-5.7 5.1-6.5 9.1-2 18.1-4.5 27.2-6.9 18.6-5 37-10.3 55.6-15.1 15-3.8 30.1-6.9 45.1-10.6 2-.5 3.7-2.3 5.5-3.5l-.7-2.1c-2.7-.1-5.4-.5-8.1-.1-10.5 1.4-21 3.7-31.6 4.3-34.5 1.9-69 3.2-103.5 4.8-4.7.2-7-1.6-9.1-6-11.8-25.3-26.6-49-43.9-70.9-3.6-4.5-2.4-6.7 1.6-8.7 8.1-4.2 16.2-8.5 24.6-12 25.2-10.4 50.8-20.1 75.9-30.6 33-13.8 65.8-27.9 98.5-42.1 4.3-1.9 8.3-4.7 12.4-7.1l-1-2.6c-2.5.1-5.1.5-7.5 1-20 5.6-39.8 12-59.9 16.8-19.5 4.5-39.4 7.2-59.1 10.9-36.5 6.6-71.3 20.4-102.5 40.5-5.1 3.3-7.6 2-9.3-3.7-3.2-10.9-5.4-22.5-10.8-32.3-10.7-19.2-23.4-37.2-35-55.9-3.7-5.9-7.4-12.2-9.2-18.9-4.2-15.4-6.8-31.2-10.9-46.6-4.7-17.6-8.9-35.6-16.1-52.2-3.9-8.9-2.1-12 4.9-15.7 1.3-.8 2.5-1.7 3.7-2.7 26.8-18.7 53.6-37.3 80.4-56 5-3.5 9.7-7.5 14.6-11.3l-1.3-2.4c-2.3.6-4.6 1.4-6.8 2.4-14.4 7.3-28.5 15.4-43.3 22-20.3 9.2-41.2 17.1-61.6 26-5 2.2-7.6 1.7-10.5-2.9-20.9-32.4-52.3-51.8-86.3-67.3-7.4-3.4-7.4-6.8-6-12.6 5.9-23.8 11.9-47.7 17.8-71.5 2.8-11 5.8-22 8.2-33.1 1-4.7.9-9.7 1.3-14.6l-3.3-.5c-12.9 36.1-25.8 72.3-39.1 109.3-1.6-2.1-3.2-4.1-4.6-6.3-8.4-12.3-15.6-25.7-25.2-36.9-27-31.3-64.1-45.2-102.5-56-13.6-3.8-27.3-7-42.9-11 34.3-70 69.6-138.4 100.8-208.8l-2.7-1.6c-3.1 4.1-6.8 7.8-9.2 12.2-15.9 29.7-37.4 55.5-58.5 81.4-25.8 31.7-45.3 66.4-57.5 105.3-1.4 4.5-3.8 5.7-8.3 5.6-11.4-.3-19.1-7.6-27.3-13.9-23.2-17.8-48.4-31.4-77.7-36.2-4.8-.8-9.6-1.1-14.3-1.8-11.4-1.6-16.7-9.6-14-20.3 4.2-16.5 8-33 11.8-49.6 5.6-24.7 11.1-49.5 16.5-74.3.9-4.1.3-8.5.4-12.8l-2.9-.7c-14.2 45.3-34.4 87.8-55.6 129.4-7.2-4.6-13.3-8.1-18.9-12.3-1.8-1.3-3.4-4.6-3.1-6.6 4.6-28.2 9.8-56.4 14.4-84.6 4.2-25.3 8-50.6 11.7-75.9.7-4.7-.1-9.6-.2-14.4l-3.2-.1c-3 11.4-5.5 23-9.2 34.3-6.4 19.7-13.4 39.2-20.4 58.8-7.8 21.9-16 43.7-23.8 65.6-1.5 4.2-3.2 5.2-7.9 3.9-11.6-3.4-23.3-7.3-35.2-8.7-32.9-3.8-64.5 4.2-95.6 13.9-15.5 4.8-30.6 10.7-45.9 16-4.5 1.6-7.9 1.2-12.2-2.5-11.6-9.9-23.6-19.2-36.2-27.8-18.5-12.9-37.6-25-56.5-37.4-5.7-3.7-11.5-7.2-17.2-10.8l-1.8 2.5 98.8 85.6c-16.1 6.4-32 12.7-48 18.8-1.4.6-3.4-.1-5.1-.5-23-5.7-46.3-7.8-69.2-1.2-20.6 5.9-40.9 11.3-62.5 9.8-12.7-.9-12.7-.5-10.1-12.5 5.4-25.3 10.8-50.6 16.1-75.9.6-2.7.2-5.7.3-8.5l-3.1-.6c-2.6 8.2-4.9 16.5-7.9 24.6-8.1 22.2-16.9 44.3-25 66.7-2 5.6-5.1 8.1-10.8 8.8-17.7 2.2-34.9 6.2-50.8 14.5-4.5 2.4-6.4-.6-8.2-4-11.6-23.3-23.1-46.7-35-69.9-15.2-29.8-30.7-59.5-46.3-89.1-1.7-3.3-4.5-6-6.8-9l-2.3 1.3c.5 2.3 1.2 4.6 2 6.8 14.5 31.8 23 65.5 31.7 99.1 6.8 26.6 14.5 52.7 27.7 76.9 2.2 4 1.7 6.2-2.7 9-13.8 8.9-27.3 18.3-40.4 28.3-5.3 4.1-7.6 3.9-11-1.8-12.2-20.4-24.7-40.7-37.5-60.8-20.7-32.2-41.7-64.2-62.7-96.2-2.2-3.4-5.4-6.1-8.2-9.2l-2 1.2c.4 2 1 3.9 1.7 5.8 12.2 27.5 25.7 54.6 36.3 82.7 12.6 33.3 25.5 66.1 46.4 95.3 7.9 11 7 11-.7 21.7-4.2 5.8-10 6.8-15.8 9.1-9.3 3.7-11.2-4-15.5-8.3-2.1-2.2-4-4.6-5.7-7.2-18-24.9-35.8-49.9-54.1-74.6-14.5-19.6-29.3-38.9-44.2-58.2-5.1-6.6-10.8-12.9-16.2-19.3l-2.4 1.7c1.6 3 3.1 6 4.8 8.9 11.3 20.9 23.6 41.4 33.7 62.9 15.9 33.7 29.5 68.5 53.5 97.7.8 1 .8 2.6 1.3 4.4-2.1.7-3.8 1.1-5.4 1.7-17.5 6.5-35.8 11.5-52.3 19.9-33.9 17.2-55.4 46.9-73.3 79.2-9.7 17.5-18.2 35.7-27.1 53.6-1.5 3.1-2.8 5.5-6.7 2.8-5.6-3.9-11.5-7.4-17.1-11.3L246.4 375.3c-2.6-1.8-5.9-2.5-8.8-3.7-.2 2.4.2 3.3.9 3.9 3.2 2.9 6.6 5.6 9.7 8.6 20.7 20.1 42.1 39.6 61.9 60.6 25.5 27.1 51.8 52.9 84.3 71.7 6 3.5 11.7 7.4 17.8 11.2-3.4 4.5-6.1 7.9-8.6 11.4-14.9 20.3-21.2 44.1-27.6 67.8-1 3.8-3 7.4-5.8 10.2-10.8 10.4-21.8 20.5-33.2 30.3-2.5 1.9-5.6 2.8-8.7 2.3-5.4-1.3-10.4-3.9-15.5-6-20.2-8.3-40.2-16.8-60.4-24.7-22.4-8.8-45-17-67.5-25.5-14.7-5.5-29.3-10.9-44-16.2-1.2-.4-2.8.4-5.8 1 4.6 3.1 7.6 5.4 10.8 7.2 21.6 12.2 43.7 23.5 64.7 36.7 29.4 18.4 57.2 39.5 89.9 52.2 6 2.3 3.8 4.8.5 8.1-19.9 19.8-37.7 41.3-49.6 66.8-12.4 26.5-15.8 54.9-14.6 83.9.3 6.4-2 10.7-7.5 13.6-2 1-4 2.2-5.9 3.5-22.4 16.3-44.7 32.6-67 48.9-5.8 4.3-11.5 8.7-17.3 13l1.2 2c2.6-1.2 5.2-2.2 7.7-3.6 18.9-10.3 37.8-20.7 56.7-30.9 8.5-4.6 17-8.9 25.6-13.3 2.4-1.2 5-2 7.5-3-.3 2.8-.2 5.7-1.1 8.3-4.5 13.4-11.6 26.4-13.5 40.1-3.9 28.5-2.5 57.3 5.5 85.3 2.1 7.3 1.1 8.9-6.9 9.2-36.5 1.3-73 2.2-109.5 3.7-31.2 1.3-62.3 3.3-93.5 5.1-3.5.2-7 1.3-10.5 1.9l.1 2.1c2.3.6 4.6 1.1 7 1.5 20.7 2.1 41.5 3.5 62.1 6.3 28.6 3.8 57 10.2 85.8 12.4 22.8 1.8 46-.8 69-1.8 3.9-.2 6.3-.3 7.5 4 .8 2.7 1.9 5.2 3.1 7.8 1.6 3.9 0 5.9-3.8 6.3-21.6 2.7-43.2 5.3-64.8 8-18.1 2.2-36.2 3.9-54.3 6.2-30 3.8-59.9 7.7-89.8 11.8-4.2.6-8.2 2.2-12.3 3.3l.3 2.7c2 .5 4 .9 6.1 1.2 34.7 1.5 69.5 2.3 104.1 4.5 28.1 1.8 56.1 4.5 84.2-.9 8.3-1.6 17.2-.8 25.8-.4 1.4.1 4 3.6 3.8 5-3.9 20.1-8.7 40.1-12.3 60.2-7.5 42.5 1.8 81.7 26.1 117.2 5.6 8.2 9.1 16.1 8.6 25.9-.4 8.9-.4 17.8-.6 26L161.3 1258l-2.8 3.1c2.1 1.2 4.2 2.5 6.1 4 11.4 9.7 22.6 19.6 34 29.3 18.4 15.6 36.7 31.2 55.3 46.5 8.8 7.3 18.1 13.1 22.7 25.1 13.2 34 38.6 59.2 64.8 83.4 14.1 13.1 29.1 25.3 43.8 37.8 4.8 4.1 5.1 7.4-.2 11.4-12.3 9.3-24.2 19.2-36.5 28.5-47.4 36.1-94.9 72.2-142.4 108.2-3.3 2.5-5.9 6-8.8 9.1l1.5 1.5c1.1-.4 2.1-.9 3.1-1.5 29.8-19.9 62.1-35 94.5-50.2 19-8.9 38-18.2 55.9-28.9 12.9-7.8 24.1-18.5 36.3-27.6 1.8-1.3 6.3-2.1 7.1-1.1 3.2 3.9.5 14.1-3.6 17.9-32.8 30-65.5 60-98.1 90-1.1 1-1.5 2.6-2.3 3.9l1.3 1.4 79.9-52.4c.4.6.7 1.1 1.1 1.7l-109.2 107.4 1.5 1.5 150.2-99.6c8.8 10.6 16.9 21.6 26.2 31.4 15.6 16.5 33.8 29.9 53.6 41 8.5 4.8 14.7 10.2 16.4 20.9 2 12.5 5 24.9 9.1 36.9 7 21.4 14.8 42.6 22.4 63.8 3.3 9.3 7 18.5 10.5 27.7l3.5-1c-4.6-20.9-9.2-41.9-13.9-62.8-4.7-21.3-9.3-42.5-14-64.5 2.1.7 4.3 1.4 6.3 2.3 17 8.4 34.2 16.4 50.9 25.3s35.3 16.3 48.7 29c26.3 24.8 49.6 52.8 73.8 79.8 1.8 2 1.8 6.8.8 9.7-3.7 11-8.3 21.7-12.1 32.7-10.1 28.8-20 57.7-29.9 86.5-.7 1.9-1.1 3.9-1.6 5.8l2.2 1.1c2.7-3.8 5.7-7.4 7.9-11.5 8.6-16 16.5-32.5 25.5-48.3s19-31.1 28.6-46.5c2.8-4.5 5.1-3.2 9-.4 14.2 10.4 28.7 20.7 43.7 29.9 13.8 8.5 29.9 11 45.7 13.4 4.3.6 7.3 1.8 6.2 7.2-7.8 37.9-15.5 75.8-23.2 113.8-.6 2.8-.2 5.7-.3 8.6l3.1.8c7.9-21.6 15.3-43.3 23.9-64.6s18.4-42.3 27.7-63.5l3.5 1.1c-17.2 74.9-33.3 150-45.9 226 2.5-1.7 4.3-4.2 5.2-7 3.2-9.3 5.6-18.9 9.4-28 10.2-24.8 20.4-49.6 31.7-74 15.1-32.4 25.1-67 29.7-102.5.7-5.7-.9-13.7 2.3-16.6 3.7-3.3 11.4-2.1 17.4-3 28.3-4.4 56.6-8.7 84.9-13.3 7-1.1 10.3 1.2 11.8 8.1 2.2 10.1 5 20.1 8.2 30 7.3 21.8 15 43.5 22.8 65.1 3.1 8.6 6.8 17.1 10.2 25.6l2.9-.8c-9.4-43.1-18.7-86.2-28.3-130.2 1.7-.3 4.7-1.5 7.4-1 12.2 2 24.5 3.8 36.5 7 26 6.9 51.6 15.1 77.6 21.7 34.9 8.9 70.2 14.3 106.1 6.3 4.9-1.1 7.3.8 8.7 4.8 2.6 7.4 5.2 14.8 7.4 22.3 6.7 22.5 13.1 45.1 19.9 67.5.9 3.1 3.3 5.7 5.1 8.5l2-.7c0-2.4-.1-4.8-.3-7.2-2-11-4.9-21.8-6.1-32.9-2.5-22.4-4.2-45-5.8-67.5-.2-2.8 2-7.1 4.4-8.4 27.4-14.3 51.7-32.9 75.4-52.5 5.9-4.9 14.2-7.1 21.7-9.9 1.6-.6 5.5 1.3 6.3 3 4 8.5 7.5 17.2 10.6 26.1 10.9 32.1 21.2 64.3 32.2 96.4 8.3 24.4 17.2 48.7 26 72.9 1.9 5.3 4.7 10.2 7.1 15.3l2.7-.8c-.1-3.9.3-7.9-.5-11.7-1.1-5.9-3.5-11.6-4.5-17.5-4.4-26.2-8.4-52.5-12.6-78.8-2.8-17.2-4.3-34.9-8.9-51.6-5.3-19.4-13.5-38.1-20.1-57.2-.7-2 .2-6 1.8-7.2 15.9-11.7 32.1-22.9 48.2-34.4 3.3-2.4 6-2.9 8.4.7 4.5 6.8 9.1 13.4 13 20.5 10.5 19.1 20.2 38.5 30.9 57.5 18.8 33.4 38 66.5 57.2 99.6 3.6 6.2 8.2 12 12.3 17.9l1.8-1.1c-.2-.9-.4-1.8-.7-2.7-5.6-13.2-12.1-26.1-16.8-39.6-10.1-29.2-19.3-58.6-28.8-88-10.1-31.5-26-59.8-46.5-85.6-1.4-1.8-2-6.5-.8-7.7 8.8-9.1 15.1-21 29.2-24.2 9.1-2 17.9-5.5 26.6-9 27.4-10.8 54.9-21.3 78.2-40 3.2-2.6 5.6-3 7 2.2 4.4 16.3 8.7 32.6 13.9 48.7 6.4 20 13.6 39.7 20.6 59.5 1.9 5.2 4.7 10.2 7 15.2l2.4-.7c-1.7-9-3.2-18-5-26.9-4.5-21.8-8.7-43.7-13.8-65.4-3.3-13.6-7.3-26.9-12.2-40-1.9-5.2-1.7-8.6 1.2-13.2 12-18.7 23.6-37.7 35.1-56.7 3.2-5.3 7.4-6.8 12.4-2.8 31.7 25.3 63.4 50.7 95 76.2 3.3 2.7 7.2 4.7 10.8 7 .6-2.8.4-4.4-.6-5.4-7.4-7.7-15.4-14.8-22.3-22.9-19.6-23-38.7-46.4-58-69.5-3-3.5-1.6-5.5 1.4-8 11.1-9.2 22.8-17.9 32.8-28.2 18.9-19.3 29.6-43.3 37-68.9 2-7 3-8 9.6-4.5 21.9 11.7 43.8 23.5 65.8 35 37 19.3 74.1 38.6 111.3 57.7 2.2 1.1 4.8 1.3 7.2 1.9l1.3-2.4c-5.4-4.1-10.9-8.2-16.3-12.3-20.7-15.4-42.4-29.7-62-46.5-29.6-25.5-60.1-49.1-96.2-64.6-10.4-4.5-11.7-8.3-7.8-18.9 1-2.7 3.3-5.1 5.4-7.1 6.1-5.8 12.7-11 18.6-16.9 3.3-3.4 6-3.8 9.9-1.4 9.8 5.9 19.5 11.8 29.5 17.3 47.7 26.3 95.4 52.5 143.2 78.7 2.1 1 4.2 1.9 6.3 2.6 0-2.8-.8-4.3-2.1-5.3-10.5-8-21.3-15.4-31.5-23.8-24.8-20.5-48.9-42-74.2-62-14.2-11.3-29.7-21.1-45.5-30.1-6.6-3.8-6-5.3-1.8-10.1 23.6-26.9 39.6-57.5 44.6-93.2.8-5.5 3.8-8.3 8.5-10.6 13.3-6.3 26.7-12.4 39.5-19.5 18.8-10.4 37.2-21.7 55.8-32.6 5.3-3.1 10.7-6.1 16-9.1l-1.4-3.1c-19.9 5.5-37.7 16.6-57 23.6-19.6 7.1-38.6 15.8-58.4 24.1.7-5.6 2.1-11.1 2-16.5-.3-31-.5-61.9-1.6-92.9-1-26.3-4.7-52.7 2.4-78.6 5.1-18.5 11.5-36.7 17.8-54.9.7-1.9 4.7-3.4 7.3-3.6 8.8-.5 17.8 0 26.6-.5 44.4-2.3 88.7-4.7 133.1-7.2 3.5-.2 7-1.3 10.5-2l-.1-2.3c-4.1-.6-8.4-1.4-12.8-1.9zM269.2 1193.6c.3-14.8.7-29.7 1-46.2 5.9 7.4 4.1 40.4-1 46.2zM1895 804.8c2.2 2.4 3.9 3.8 5 5.6 6.4 11.2 12.6 22.5 19 33.6 3.2 5.5 1.9 7.8-4.3 9.4-9.2 2.3-18 5.9-26.8 8.9 2.3-18.7 4.6-37.2 7.1-57.5zm-130.3-266.4c1.4-1 5.7-.7 6.2.3 3.7 7.8 6.7 15.9 9.9 23.8-6.8-6.1-13.4-11.8-19.5-17.9-.6-.6 1.6-4.9 3.4-6.2zm-44.4-67.6c9.8 9.4 19.8 18.7 29.2 28.5 2.1 2.2 4.2 7.8 3.2 8.8-3.6 3.6-8.4 6-13 8.5-.5.3-3-2.2-3.8-3.8-4.9-9.6-9.5-19.4-14.3-29.1-2-4.2-4.2-8.2-7.3-14.4 3.8.9 5.3.8 6 1.5zm-66.5-34.9c4.7 2.2 9.3 7.4 11.3 12.3 8.4 20.3 15.9 41 23.8 61.6 1.5 4 3.4 7.9 5.8 13.3-3.2-.8-4.6-.9-5.9-1.5-4.5-2.2-8.7-5.6-13.4-6.7-16.7-3.9-26.5-15.6-35.1-29.1-11.8-18.6-23.7-37.1-35.8-55.5-3.4-5.2-7.4-10-11.2-15 .5-.6.9-1.3 1.4-1.9 5.6 2 11.3 3.8 16.8 5.9 14.2 5.4 28.6 10.3 42.3 16.6zm-31-57c-15 1-78.9-31-100-50.1 15.9-5.6 91.3 32.2 100 50.1zm-302.4-92.3c.2-4.2 2.2-8.3 2.8-12.5 1.6-11.2 8.7-14.8 18.6-8.5 7.1 4.4 13.9 9.3 20.4 14.5 18.9 15.4 40.7 23.4 64.5 26.2 8.9 1.1 16.4 4.4 22.7 10.9 4.4 4.5 9.3 8.6 13.9 12.9l-1 1.5-23.4-3.9c-19-3-38-5.8-57-8.9-21.3-3.4-40.8-11.8-58.9-23.3-2-1.1-2.7-5.8-2.6-8.9zm-154.2-87.5c17.7-.5 35.4-.9 53 .4 8.6.6 16.9 4.7 25.3 7.4 1.3.4 3.4 1.8 3.4 2.7-.2 9.2-.7 18.4-1.6 27.5 0 .3-6.2 1.2-8.4 0-20.4-11.8-41.5-22-64.3-28.3-5.1-1.3-10.4-2.1-15.6-2.5-4.1-.4-8.3-.2-12.4-.3-.1-.9-.2-1.8-.2-2.7 6.8-1.5 13.8-4 20.8-4.2zm15.2 57.4c-29.2 7.5-57.4 9.5-85.1-3.6 8.8-10.1 74.9-7.4 85.1 3.6zM608.8 380.4c-18.4 24.6-35.4 48.8-64.1 61.3-15.3 6.7-29.6 15.4-44.4 23.2-1.2.4-2.4.7-3.7.9 24.6-45.4 60.8-74.2 112.2-85.4zM352.2 690.2c-10.6 46.4-40.5 80.9-71.5 116.1-.8-30.7 51.9-114.9 71.5-116.1zm-4.5 99.1-24 45.7c-5.5-9.8-4.9-14.4 1.7-22.1 5.4-6.3 10.3-13.2 15.5-19.7 1.5-1.8 3.2-3.5 4.8-5.3l2 1.4zm-63.1 124.9c-1.2-12.8-5.2-26.2-2.9-38.4 2.1-11 10.2-21.2 19.5-31.9 1.4 9.9 3.4 17.1 3.1 24.3-.2 5.2-3.2 10.3-5.2 15.4-4 10.2-8.2 20.3-12.3 30.5l-2.2.1zm11.3 123.9 3-.4 4.5 14.6-10.5 3.2c1.3-7.5 2.1-12.4 3-17.4zm3.8 57c-4.2-9.9-4.2-9.9 6.7-11.8 12.8-2.3 12.8-2.3 19.3 8.9 4.4 7.7 8.8 15.3 13 23.2.8 1.5 1.1 4.4.2 5.4-7.3 8.6-15 16.9-23.3 26.1l-14.8-48.1c-.3-1.3-.6-2.5-1.1-3.7zm42.5 299.1-29-45.2 2.9-2.1c2.1 2.1 4.3 4 6.2 6.2 5.1 5.9 9.6 12.6 15.4 17.8 7.1 6.4 5.4 14.5 7.3 21.9l-2.8 1.4zm26.3-211.6c-.8 19.7-3.6 39.2-5.8 58.8-.7 6-2.1 12-3.1 18-1 5.7-2 11.2-9.4 5.5-1.4 20-2.7 38.9-4 57.8l-2.4.6c-10.7-12.4-21.1-24.9-32.1-37.1-7.5-8.4-8.3-17.7-7-28.3 2.1-17.6 2.8-35.4 4.5-53.1.7-6.8 1.7-13.6 3.2-20.2.6-3 1.9-5.7 3.8-8.1 10.6-12.2 21.6-24.2 32.4-36.2.5-.5 1.3-.6 3.2-1.5 6 14.6 17.3 27.3 16.7 43.8zm7.9 247.3-6.9-14.6 3.1-1.6 7.6 14.2-3.8 2zm50 40.4c-2.6-2.4-3.2-6.9-4.8-10.4l2.7-1.8c11.3 12.1 24.5 22.5 36 36.8-3 .2-4 .6-4.4.2-9.9-8.1-20-16.1-29.5-24.8zm69.5 161.6c-18-15.6-36-31.2-46.9-53.1-.9-1.8-1.6-4.8-.7-6.2 3.2-5 7.1-9.6 11.9-15.9l41.4 77.8c-3.3-1.4-4.8-1.7-5.7-2.6zm56.2 10.2c-6.1-10.3-12.5-20.5-18.2-31.1-12-22.2-23.3-44.9-35.7-66.9-4.9-8.7-12-16.2-17.9-24.4-1-1.3-1-3.3-1.5-5 1.6.6 3.5.9 4.7 2 26.2 23.8 41.3 54.5 54 86.8 5 12.6 11.3 24.7 17 37l-2.4 1.6zm81.5 44c-17.8-12.5-29.2-30.7-39.7-49.4-1.8-3.2-3.8-6.3-7-11.6 9.1 2.6 16.1 4.3 22.9 6.6 26 8.4 52 16.8 77.8 25.7 3.8 1.6 7 4.4 9 8.1 7.6 14.2 14.5 28.8 21.6 43.2.3.6.2 1.4.5 3.7l-12.6-1.9c-12.8-1.9-26.1-2.2-38.1-6.2s-23.8-10.8-34.4-18.2zm106.7 82.4c-3.3 10.2-7.1 20.3-11.4 32.3l-38.5-45.3c9.2 1.9 16.1 3.5 23.1 4.9 7.4 1.4 15 2.4 22.4 4 1.7.3 4.7 3.2 4.4 4.1zm107.2 94.7c-.5 2.1-4.6 5.2-6.6 4.9-15.5-2.2-31.3-4.4-44.9-12.9s-26.3-17.8-39.1-27.1c-1.4-1-2-4.5-1.5-6.5 4.2-15.9 8.6-31.7 13.5-47.4.6-2 5.1-4.1 7.6-3.8 14.6 1.7 29.1 3.8 43.6 6.4 3.5.6 6.7 3.4 9.6 5.8 8.2 6.8 16.2 13.8 24 21 2.2 2.1 3.6 5 5.6 7.9-4 17.7-7.6 34.8-11.8 51.7zm84.3 4.3c-4.6-.1-9.3-.6-13.9-.2-9.8.8-19.7 1.8-29.5 3-3.8.5-7 .4-6.4-4.6 1.3-10.2 2.9-20.3 4.6-31.7l45.7 30.8c-.2.9-.4 1.7-.5 2.7zm174.3-2.7c6.2-1.3 12-2.4 17.7-3.9 11-2.8 21.9-6.1 33-8.5 2.7-.6 6.6.6 8.8 2.3 5.6 4.3 10.4 9.7 15.8 14.3 5 4.2 10.5 7.9 15.6 12 2 1.6 3.8 3.4 6.3 5.8-13.4 1.7-88-14.6-97.2-22zm146 19.8c-2.3.4-5.2.5-7-.7-15.6-9.9-31-20-46.4-30.1-3.5-2.3-7.2-4.4-10.8-6.7v-2.5c7.3-1.5 14.6-3.7 21.9-4.2 9.4-.6 18.8-.4 28.1.5 2.7.2 6.6 3.5 7.4 6.1 3.3 10.8 5.8 22 8.2 33.1.4 1.4-.6 4.3-1.4 4.5zm44.4-19c-10.3 5.9-10.5 5.7-14.5-5.1s-8.2-15.5 9.5-12.8c7.9 1.2 15.8 2 23.8 3l1.2 2.5c-6.7 4.1-13.2 8.5-20 12.4zm63.1-52.6c-32.4 2-64.1-4-96.1-7.5-1-.1-2-.4-2.9-.8-.6-.3-1.1-.9-3.3-2.7 3.8-1 6.4-2.1 9-2.2 30.7-.8 61.3-1.2 92-2.4 10.2-.4 20.3-2.7 31-3.3-9.7 6.6-15.5 18-29.7 18.9zm261.2-142.4c-6.9 5.1-14.2 9.7-21.4 14.4-4.2 2.7-8.5 5.2-12.8 7.8-.7-.8-1.4-1.6-2.1-2.3 6.5-5.6 12.9-11.5 19.7-16.8 4.3-3.2 8.8-6 13.5-8.4 1.6-.9 3.9-.6 5.8-.8-.8 1.9-1.1 4.8-2.7 6.1zm11-73c-.8 2.1-1.8 4.4-1.8 6.5.2 9.8-4.9 15.1-13.7 18.5-28.3 10.9-51.8 27.8-69.8 52.8-11.4 15.8-24.7 30.3-38 44.5-4.4 4.7-11.7 6.8-17.7 10l-1.5-2.3c3.3-4.3 7-8.3 10-12.9 16.9-26.1 34.4-51.9 50.1-78.7 17.7-30.2 42.2-50.7 75.6-60.8 5.1-1.6 10-3.9 17-6.6-4 11.3-7.1 20.1-10.2 29zm42.3-4.3-7 4.4-13 8.1c1-9.4 1.6-16.3 2.7-23.1.2-.9 2.9-1.6 4.5-2 .7-.1 1.7 1 2.4 1.7 3.6 3.6 7 7.3 10.4 10.9zm65.6-55.6 27.8-41.8c1.8 11.6-17.5 41.1-27.8 41.8zm56.1-282.5c-.7 1.8-2.1 3.2-4.5 6.8-2.8-48-7.7-93.7-13.6-139.2h-4c-.5 5.2-1.1 10.4-1.4 15.7-1.2 20.8-1 41.7-3.7 62.2-3.3 24.9-1 49 4.4 73.2.6 2.7 1.1 5.7 2.6 7.9 6.9 9.5 3.9 19.3 1.7 29.2-3.7 17.1-7.1 34.2-11.1 51.2-3.4 14.3-7.2 28.4-11.4 42.5-.8 2.6-4 5.2-6.7 6.5-39.3 18.4-72.9 45.9-110.1 67.6-3.6 2.2-6.6 5.4-8.6 9.2l114.5-54.5c0 23.3-49 79.2-75.4 84.3.7-6.8 1.4-13.2 2-19.6l-2.8-.8c-1.8 4.6-4.7 9.2-5.1 13.9-.8 9.7-5.7 14.6-14.6 18-24.3 9.3-48.4 19.3-72.4 29.4-20.3 8.6-33.7 24.7-44.9 43-.5.6-.9 1.2-1.2 1.9-6.7 18.8-21.8 19.7-38.6 20-36 .6-72 2.6-108 4.2-4.3.2-8.5 1.7-12.7 2.6.1.9.1 1.7.2 2.6 3.8.6 7.7 1.7 11.5 1.7 25.9-.2 50.6 7.2 76 10.7 11.9 1.6 24.1.2 36.2.2 2.4 0 4.8-.2 9.1-.3-3.5 5.5-6 9.4-8.4 13.3-16.8 27.4-35.8 53.1-61.3 73-18.8 14.6-40.8 22.7-64.4 24.9-28.8 2.7-57.7 3.6-86.5 5.2-1.1.1-2.3-.5-4.5-2.9l55.7-36.3c-.3-.9-.7-1.7-1-2.6-2.2.2-4.7-.2-6.6.6-24.8 10.7-49.8 21.2-74.4 32.4-29.7 13.5-59 27.8-88.6 41.6-8.7 4.1-17.7 7.5-26.5 11.6-5 2.3-8.9 1.4-13.2-2-4.7-3.7-10.2-6.3-15.4-9.4l-2.4 3.2c3.3 3.1 6.7 6.2 10 9.4 1.2 1.4 2.4 2.9 3.4 4.4-1.8 1.2-3.4 3.3-5.3 3.6-3 .5-6 .2-8.8-.8-24.4-9.1-48.7-18.5-73.1-27.7-22.2-8.4-44.5-16.8-66.7-25.1-1.8-.6-3.6-1-5.5-1.3-.3.7-.7 1.3-1 2 18.3 11.1 36.8 22 55 33.4s35.5 24.5 56.9 30.2l-.6 2.1c-1.2.7-2.4 1.8-3.7 1.9-21.6 1.4-43 5.9-65-.6-20.4-6-39.8-13.6-57.7-24.8-27.7-17.4-54.7-35.7-82.5-53-9.5-5.9-21.3-8.5-30.4-15-22.1-15.8-47.3-18.4-72.9-20.3-6.5-.5-11.3-2.2-14.8-8.5-15.7-28.7-31.8-57.1-47.7-85.6-6.7-11.9-13.4-23.9-20.3-35.7-1.7-2.9-4.3-5.3-6.5-8l-2.1 1.2c3.1 7.8 6.3 15.6 9.2 23.5 5 14 9.8 28.1 14.5 42.2.3 1 0 3.1-.5 3.3-1.3.5-2.8.4-4.1-.2-17.4-9.9-34.1-21-52.1-29.5-16.1-7.7-33.5-12.8-50.5-18.3-4.8-1.6-7.8-3.2-9.9-8-10.3-22.6-20.6-45.2-31.8-67.3-3.5-6.9-9-12.9-14.4-18.5-22.1-22.7-44.9-44.9-66.8-67.8-18.4-19.2-36.7-38.5-50.5-61.7-4.5-7.5-4.1-14.3-1.5-21.7 12.2-34.6 24.6-69.1 37-103.7 2.3-6.4 5.1-12.7 7.4-19.1 1.1-3.1 1.3-6.5 1.9-9.7l-2.7-.9c-9.7 18-18.6 36.5-29.4 53.9-10.9 17.5-22.3 34.6-27.6 55l-2.4-.4c-.5-2.2-1.4-4.4-1.5-6.7-1.5-26.2 1.1-52 5.6-77.9 3.9-21.9 6.7-44 8.4-66.2 1.1-16.2-8-30-15.1-44-4-7.9-9.2-15.2-13-23.1-1.2-2.5-.9-7.2.7-9.3 15.7-20.5 31.8-40.7 47.8-61.1 2.7-3.4 5-7.1 7.5-10.7l-2.1-1.8c-7.5 7.3-15.1 14.5-22.4 21.9-12.6 12.8-25.1 25.8-37.6 38.7-3.5 3.7-5.9 1.9-7.7-1.5-14.9-29.1-30.2-58-38.4-89.9-2.4-9.4-3.6-19.1-5.5-29.7l7.6 2c.1-3.6.5-6.6.2-9.5-3.4-28.6 2.1-55.2 16.2-80.5 11.1-19.9 21.2-40.4 31.7-60.6 11.4-21.8 18.9-44.5 21.2-69.2 3.1-34.5 6.9-69.1 11.5-103.5 1-7.4 4.3-15.7 9.3-21.1 13.1-14 18.6-31.8 26.7-48.2 4.1-8.4 7.3-17.2 10.9-25.9.4-.9.7-2.6 1.2-2.7 9.8-1.9 19.5-3.7 29.4-5.3.9 1.3 1.3 2.8 1.3 4.4-4.9 25.3-10 50.6-15 76-1.5 7.3-2.9 14.6-4.4 21.9l3.4 1.2c2.2-5 4.7-9.8 6.7-14.9 8.5-21.7 16.8-43.4 25.1-65.2 2.4-6.4 4.7-12.8 6.7-19.4 1.5-4.8 4.2-7.8 9.5-8.5 16.1-2 32.1-4.4 48.2-6.4 12.1-1.5 24.2-2.8 36.2-4.3 1.4-.2 2.7-1.1 4-1.7.1-.8.2-1.5.4-2.3-3.5-.8-6.9-2.2-10.4-2.3-9.6-.4-19.3.1-28.9-.3-15.7-.7-31.3-1.8-46.9-2.8-1.2 0-2.5-.5-3.5-1.2-3.4-3-.8-19.9 3.4-21.6 6.1-2.5 12.4-4.6 18.4-7.1 5.3-2.2 9.6-3.3 8.9 7.6 6.8-13.4 17.3-16.1 27.8-19.4 14.8-4.4 29.3-9.6 43.5-15.6 15.1-6.5 25.8-18.8 34.9-32.1 13.1-19.3 25.5-39 38.1-58.6 4-6.2 8.9-10.4 16.6-12.1 12.1-2.7 24-6.1 35.8-10 4.5-1.5 8.5-4.9 12.7-7.5l2.1 1.4-29.6 67.2 2.9 1.5c2.7-4 5.6-7.9 8.1-11.9 15-24.1 29.7-48.3 45-72.2 2.6-4.1 7.1-7.2 11.4-9.9 16.4-10.2 32.8-20.3 49.6-29.6 4.7-2.6 11.1-3.6 16.6-3.3 21.5 1.2 43 3.2 64.6 4.8 3.3.2 6.7.5 9.9-.2 33.1-7.8 59.7 7.8 85.9 24.1 11.8 7.3 23 15.7 34.6 23.5 1.9 1.1 3.8 2.1 5.8 3l2.4-2.8-21-19 1.3-2.5c7.4 3.1 14.8 6.4 22.3 9.3s15 5.1 22.6 7.7c.6-1.3 1.2-2.6 1.8-4-15.2-8.3-30.6-16.2-45.5-24.9-15.2-8.8-30.1-18.4-46-28.1 1.8-1.2 3.7-2.3 5.6-3.2 2.3-1 5-1.3 7.2-2.5 15.5-8.9 29.1-2.6 43.5 4.1 19.7 9.1 40.1 16.6 60.4 24.5 15.4 6 30.7 1.9 45.7-1.7 20.2-4.8 40.1-10.8 60-16.4 6.4-1.8 12-2.1 18 2.2 15 10.9 30.8 20.6 45.4 32 31.7 24.6 67.1 38.8 107 43.7 28.1 3.5 55.8 10 83.7 15.4 3.2.6 6.2 2.6 9.1 5-42.4.8-83.8 8.2-125.8 10.7v3.8c2.7.5 5.4 1.2 8.2 1.4 27 2.7 54 6.1 81 7.8 13.5.9 27.3-.8 40.8-2.3 8.5-1 16.6-4.3 25.1-5.7 2.9-.5 6.8 1.3 9.4 3.1 17.2 12.3 29.9 28.9 41.8 45.9 15.1 21.6 29.2 43.9 43.8 65.8 16.5 24.7 38.6 43.4 63.1 59.8 15 10 29.5 20.7 44 31.3 2.1 1.7 3.5 4.1 4 6.8 3.4 23.8 6.4 47.7 9.8 71.5 1.1 7.9 3.3 15.6 5 23.4l2.9-.2 1.8-79.8 2.7-1.2c3.3 2.8 7 5.2 10 8.3 12.3 13.1 24.4 26.4 36.6 39.6 11 11.8 9.9 24.9 4.4 38.7-5.2 12.9-10.1 25.9-14.7 39-6.2 17.7-11.9 35.5-17.8 53.2-3.8 11.5-7.7 22.9-11.6 34.4-.2.9-.3 1.8-.3 2.8l1.9.9c10-18.1 20-36.3 30-54.4 9.9-17.9 19.9-35.8 30.3-54.5.7 2.1 1.6 3.7 1.6 5.2.7 26.3 1.5 52.7 1.8 79 .1 11.1-1 22.3-1.8 33.4-1.9 24.4 3.6 47.1 13.5 69.3 7.2 16.3 12.2 33.6 18 50.5 7.4 21.5 15.4 42.8 21.9 64.6 4.6 15.7 7.3 32 10.6 48 .5 2.4-.4 5.1-.8 8.8L1810 979.7l-3 1.4c.5 2.2.6 4.6 1.6 6.4 14.6 26 21.9 55 33.9 82 7.5 16.8 18.2 32.1 28 47.8 2.6 4.1 3.9 7.5 1.2 11.8-12 19-23.9 38.1-36 57.1-14.2 22.4-30.4 43.8-39.8 68.9l-.1.1zm38.6 125.7c-7.3-20.9 32.8-127.2 53.3-140.3 5.7 43.9-25.7 125.9-53.3 140.3zm86.2-389.9c-2 6-7.7 6.8-12.5 6.3-2.9-.3-6.8-3.3-8.1-6.1-4.6-10.4-7.6-21.5-12.2-31.8-8.3-18.4-5.7-37.7-5.5-56.8 0-2.5 3-6.3 5.4-7.1 13.1-4.5 26.5-8.3 39.8-12.3 4.2-1.2 6.3 1 6.6 5 .8 9.8 1.6 19.7 2.2 26.6-1.3 28.2-7.9 52.3-15.7 76.2z"/>
  <path d="M1567.5 782.3c-5.6-36-10.8-72.3-21-107.1-5.1-17.4-20.6-31.8-31.3-47.5-6.9 24.1-7.3 44.8-10.9 65-10.7 59-45.3 77.9-101.5 57.9-17.9-6.4-25.1-15.5-25.5-36-1-52.5-5.8-105-28-153.8-9.6-21-21.1-41-45.7-49.9 0 22.4.6 43-.2 63.5-.8 20.8-2.1 41.6-4.6 62.3-5.2 42.5-18.8 81.2-54.6 108.4-39.6 30-102 3.3-108.8-46.2-10-72.6-19.9-145.2-31-217.7-4.3-28.3-11.7-56.2-17.7-84.3l-6.3.3c-2.4 8.5-5.7 17-7.1 25.6-14.4 90.5-30.3 180.7-41.8 271.6-4.6 36-28.5 48.8-54.3 61.1-24.3 11.5-45-.8-63.3-17.1-35.1-31.1-45.3-73.1-48.3-117-2.4-36.1-.5-72.5-.5-111.6-33 13-47.6 38.3-53.7 65.2-10.6 46.8-16.4 94.8-22.2 142.6-1.8 14.8-4.7 23.9-19.5 30.1-61.4 25.8-100.6 4.1-109.7-62.7-2.5-18.3-2.9-36.9-4.5-58.2-5.8 4.8-9.2 7.1-11.9 10.1-38.6 42.5-44.5 95.3-46.1 149.2-.1 4.6 4 11.4 8.1 13.7 55.3 30.5 60.2 81.6 45.1 132.4-15.7 52.6 16.2 87 31.4 134 10.2-40.9-9.8-88 37.6-105.8 24-9 52.2-6.8 78.6-8.8 37.6-2.9 30.3 40.8 53.5 53.1 7.6-14.3 13.4-29.5 23-41.6 6.3-7.9 19.2-17.3 27.5-15.9 65.5 11 136.2 13.9 166.1 90.9 1.7 4.5 5.1 8.3 8.6 13.9 3.5-5.3 7.3-9 8.7-13.4 14.3-44.3 47.8-65.6 90.1-76.9 8.8-2.3 17.2-6.2 26-8.8 63.1-19.2 74.3-13.7 99.2 48.3.5 1.2 2.5 1.8 5.5 3.8 7.7-13.7 14.5-27.8 23.5-40.4 4.1-5.8 12.5-12.1 18.9-12.1 25.7.1 51.4 1.7 76.9 4.7 22.2 2.6 36 15.9 38.5 39.2 2.3 21.5 4.5 43 7.3 70.7 20.9-51 47.1-91.3 30.4-146.8-16-53 7.6-90.8 54.3-119.1 5.7-3.6 12.1-13.3 11.2-18.9zM1085 896.7c-16.8.8-48.3-40-48.9-63.3-.6-22.6 22.6-44.7 47.4-45.1 24.4-.5 48.6 21.2 48.9 43.7s-29.9 63.9-47.4 64.7zm-68.8 720.8-5.9 16.2h-49.6v-2.3c14.6-13.3 24.9-24.2 30.8-32.6 6-8.4 8.9-16.1 8.9-23.1.2-4.9-1.6-9.6-4.9-13.2-3-3.3-7.3-5.2-11.7-5.2-4 0-7.9 1.2-11.1 3.6-3.5 2.7-6 6.4-7.3 10.6h-2.3c1-7.7 3.7-13.5 8-17.6 4.3-4.1 10.1-6.3 16-6.1 6.3-.2 12.5 2.2 17.1 6.6 4.4 4 6.9 9.6 6.8 15.5 0 4.4-1.1 8.8-3 12.8-3.1 6.7-8 13.8-14.9 21.3-10.3 11.2-16.7 18-19.3 20.3h22c3.1.1 6.3-.1 9.4-.5 1.7-.3 3.4-1 4.9-2 1.6-1.1 2.9-2.6 3.8-4.3h2.3zm9.9-25.4c0-9.6 1.4-17.9 4.3-24.8 2.9-6.9 6.7-12.1 11.5-15.5 3.3-2.5 7.4-3.9 11.5-4 6.4 0 12.2 3.3 17.4 9.9 6.4 8.1 9.6 19.2 9.6 33.1 0 9.8-1.4 18.1-4.2 24.9s-6.4 11.8-10.8 14.8c-4.4 3.1-8.6 4.6-12.6 4.6-8 0-14.7-4.7-20-14.2-4.4-7.9-6.7-17.5-6.7-28.8zm12.1 1.6c0 11.6 1.4 21 4.3 28.3 2.4 6.2 5.9 9.2 10.6 9.2 2.2 0 4.5-1 6.9-3 2.4-2 4.2-5.4 5.5-10.1 1.9-7.1 2.8-17.1 2.8-30.1 0-9.6-1-17.6-3-24-1.5-4.7-3.4-8.1-5.8-10.1-1.7-1.4-3.9-2.1-6.1-2-2.9.1-5.7 1.4-7.5 3.8-3 3.4-5 8.8-6.1 16.2-1 7.2-1.6 14.5-1.6 21.8zm105 23.8-5.9 16.2h-49.6v-2.3c14.6-13.3 24.9-24.2 30.8-32.6s8.9-16.1 8.9-23.1c.2-4.9-1.6-9.6-4.9-13.2-3-3.3-7.3-5.2-11.7-5.2-4 0-7.9 1.2-11.1 3.6-3.5 2.7-6 6.4-7.3 10.6h-2.3c1-7.7 3.7-13.5 8-17.6 4.3-4.1 10.1-6.3 16-6.1 6.3-.2 12.5 2.2 17.1 6.6 4.4 4 6.9 9.6 6.8 15.5 0 4.4-1.1 8.8-3 12.8-3.1 6.7-8 13.8-14.9 21.3-10.3 11.2-16.7 18-19.3 20.3h22c3.1.1 6.3-.1 9.4-.5 1.7-.3 3.4-1 4.9-2 1.6-1.1 2.9-2.6 3.8-4.3h2.3zm63.5 0-5.9 16.2h-49.6v-2.3c14.6-13.3 24.9-24.2 30.8-32.6s8.9-16.1 8.9-23.1c.2-4.9-1.6-9.6-4.9-13.2-3-3.3-7.3-5.2-11.7-5.2-4 0-7.9 1.2-11.1 3.6-3.5 2.7-6 6.4-7.3 10.6h-2.3c1-7.7 3.7-13.5 8-17.6 4.3-4.1 10.1-6.3 16-6.1 6.3-.2 12.5 2.2 17.1 6.6 4.4 4 6.9 9.6 6.9 15.5 0 4.4-1.1 8.8-3 12.8-3.1 6.7-8 13.8-14.9 21.3-10.3 11.2-16.7 18-19.3 20.3h22c3.1.1 6.3-.1 9.4-.5 1.7-.3 3.4-1 4.9-2 1.6-1.1 2.9-2.6 3.8-4.3h2.2z"/>
</svg>
