<?xml version="1.0" standalone="no"?>
<!DOCTYPE svg PUBLIC "-//W3C//DTD SVG 20010904//EN"
 "http://www.w3.org/TR/2001/REC-SVG-20010904/DTD/svg10.dtd">
<svg version="1.0" xmlns="http://www.w3.org/2000/svg"
 width="700.000000pt" height="700.000000pt" viewBox="0 0 700.000000 700.000000"
 preserveAspectRatio="xMidYMid meet">
<metadata>
Created by potrace 1.14, written by Peter Selinger 2001-2017
</metadata>
<g transform="translate(0.000000,700.000000) scale(0.100000,-0.100000)"
fill="#000000" stroke="none">
<path d="M4287 6993 c-3 -5 -17 -48 -31 -96 -15 -49 -54 -164 -88 -258 -45
-125 -65 -169 -77 -169 -9 0 -37 7 -63 15 -31 9 -78 13 -135 11 -106 -5 -115
-7 -269 -57 -66 -21 -127 -39 -134 -39 -8 0 -39 20 -69 44 -74 57 -298 206
-311 206 -6 0 24 -30 67 -67 43 -38 89 -78 103 -90 14 -12 34 -30 46 -40 72
-63 96 -85 93 -87 -2 -2 -35 -15 -73 -30 -61 -24 -78 -27 -130 -20 -104 12
-129 11 -221 -12 -84 -21 -195 -31 -207 -19 -3 3 8 69 24 147 16 77 28 147 26
155 -2 8 -27 -52 -57 -134 -29 -81 -61 -156 -70 -165 -9 -9 -36 -20 -60 -23
-24 -4 -67 -15 -95 -26 -28 -11 -52 -17 -54 -12 -18 46 -283 548 -291 551 -6
2 2 -32 18 -75 16 -43 41 -123 56 -178 43 -158 55 -195 87 -278 35 -90 40 -78
-63 -150 -36 -25 -70 -42 -75 -39 -6 4 -28 36 -49 72 -98 164 -310 483 -313
469 -1 -8 14 -51 33 -94 60 -131 62 -136 105 -243 46 -117 76 -177 119 -241
34 -51 28 -80 -22 -105 -42 -20 -55 -11 -128 91 -74 104 -259 352 -302 406
-48 59 -50 43 -5 -35 23 -40 72 -138 110 -216 38 -79 88 -175 112 -212 l44
-68 -76 -27 c-196 -70 -275 -148 -394 -386 -26 -54 -52 -100 -57 -103 -6 -4
-398 257 -437 292 -5 5 -21 15 -34 22 -13 7 -50 32 -83 56 -32 24 -64 44 -70
44 -10 0 324 -334 388 -388 15 -13 58 -44 96 -68 71 -46 81 -62 53 -85 -22
-18 -48 -73 -75 -159 -24 -78 -77 -149 -143 -190 -28 -18 -29 -18 -145 31
-194 80 -492 190 -504 186 -6 -2 36 -30 93 -62 58 -32 150 -88 205 -123 55
-36 130 -81 168 -99 37 -19 67 -37 67 -40 0 -2 -22 -30 -48 -61 -122 -142
-161 -236 -167 -397 -2 -62 -6 -82 -19 -90 -38 -23 -309 -225 -302 -225 4 0
74 36 155 80 154 83 178 92 166 63 -51 -124 -63 -243 -38 -367 8 -37 13 -70
11 -72 -2 -2 -64 -6 -138 -8 -151 -6 -417 -18 -470 -21 -19 -2 -53 -3 -75 -4
-61 -2 -29 -18 50 -26 112 -10 143 -14 270 -35 80 -12 165 -18 254 -17 120 1
135 -1 147 -18 24 -33 10 -40 -106 -50 -36 -4 -76 -8 -90 -11 -14 -2 -50 -7
-80 -9 -30 -3 -86 -10 -125 -15 -129 -17 -154 -21 -187 -25 -101 -12 -129 -18
-134 -26 -3 -5 5 -9 18 -10 65 -2 168 -7 308 -14 181 -10 198 -10 307 0 100 9
102 7 78 -97 -50 -222 -39 -326 54 -482 28 -47 35 -69 35 -112 0 -29 -3 -56
-6 -59 -3 -4 -79 42 -167 101 -89 59 -163 105 -165 103 -3 -2 76 -72 174 -154
168 -142 181 -154 222 -230 44 -82 179 -230 296 -324 28 -24 52 -48 52 -55 0
-6 -115 -99 -256 -206 -308 -234 -367 -281 -361 -287 3 -2 25 8 49 23 23 15
136 74 249 131 119 59 230 122 262 148 99 81 122 46 29 -44 -50 -49 -270 -250
-281 -258 -2 -2 -2 -6 1 -9 4 -3 46 21 95 53 175 117 174 111 -11 -71 -98 -97
-175 -176 -171 -176 3 0 112 70 241 155 129 85 238 155 242 155 4 0 37 -33 74
-73 38 -42 102 -97 151 -130 86 -57 86 -57 97 -114 20 -94 126 -393 139 -393
5 0 2 26 -5 58 -48 197 -78 352 -69 352 4 0 73 -34 154 -75 108 -55 160 -89
201 -128 84 -82 214 -227 222 -247 4 -10 -2 -42 -14 -72 -55 -145 -125 -359
-116 -356 6 2 33 46 60 98 57 108 135 237 148 245 4 3 48 -22 96 -55 85 -58
116 -72 194 -85 33 -6 53 -22 45 -35 -2 -4 -6 -17 -9 -31 -2 -13 -18 -93 -35
-177 -17 -85 -31 -161 -31 -170 0 -27 16 -1 40 68 34 97 133 330 140 330 4 0
-1 -37 -12 -82 -10 -46 -20 -96 -23 -113 -4 -16 -15 -68 -25 -115 -10 -47 -22
-101 -25 -120 -3 -19 -10 -53 -15 -75 -5 -22 -14 -69 -19 -105 -6 -36 -13 -78
-16 -93 -8 -40 12 -25 20 16 4 17 45 120 91 228 86 201 116 296 129 407 5 47
11 62 23 63 10 1 26 3 37 4 11 2 45 6 75 10 30 4 58 9 61 11 9 5 108 18 143
18 34 1 36 -2 76 -129 39 -128 91 -267 103 -280 10 -11 5 22 -19 118 -8 32
-16 73 -20 90 -3 18 -10 52 -15 77 -6 25 -12 54 -15 65 -2 11 -6 33 -10 49
l-6 29 47 -7 c26 -4 79 -16 119 -27 279 -76 346 -90 429 -93 49 -2 104 0 122
4 18 4 38 4 44 1 10 -7 33 -72 77 -221 25 -86 36 -110 44 -105 4 3 4 22 -1 42
-19 89 -34 244 -30 314 1 8 20 26 44 39 45 26 179 118 187 130 11 16 76 50 97
50 15 0 24 -10 33 -32 6 -18 54 -157 105 -308 112 -329 124 -358 135 -340 4 7
4 25 -1 39 -4 14 -20 100 -34 191 -15 91 -29 179 -31 195 -11 65 -25 116 -54
195 -17 46 -29 87 -28 91 4 9 170 129 180 129 8 0 58 -83 118 -195 96 -180
260 -458 266 -452 2 2 -7 28 -20 58 -13 30 -54 144 -90 252 -67 202 -92 259
-160 360 l-39 58 37 38 c24 25 56 44 94 56 88 27 225 89 276 124 25 18 50 30
55 27 5 -3 12 -22 15 -41 7 -33 81 -263 108 -333 14 -36 31 -44 23 -9 -3 12
-18 85 -35 162 -16 77 -38 169 -50 204 l-20 64 66 108 c37 60 73 109 81 109 8
0 92 -61 185 -136 168 -133 221 -164 141 -81 -23 23 -84 94 -137 157 l-95 114
88 86 c76 74 92 95 119 162 18 42 32 81 32 87 0 24 24 19 92 -17 40 -21 127
-67 193 -102 66 -34 166 -87 222 -116 119 -63 159 -71 84 -16 -93 67 -205 153
-236 180 -67 59 -144 113 -227 157 -114 60 -116 79 -20 157 l33 28 37 -24 c20
-12 66 -39 102 -58 36 -20 128 -71 205 -113 215 -119 219 -121 240 -128 11 -4
2 8 -19 26 -22 17 -105 86 -185 153 -80 66 -181 144 -223 172 l-77 52 48 68
c53 72 76 122 101 217 l15 60 71 35 c90 45 302 168 309 181 9 13 3 12 -52 -12
-97 -42 -307 -129 -313 -129 -3 0 -8 87 -9 193 -7 379 -7 372 27 483 18 56 37
106 44 112 7 5 90 13 183 17 94 4 188 8 210 10 22 2 68 4 102 6 60 2 112 17
68 20 -11 0 -29 2 -40 3 -11 2 -49 6 -85 10 -77 9 -136 16 -170 21 -32 5 -90
12 -160 21 -30 3 -58 10 -61 15 -3 6 2 33 12 62 27 82 38 155 34 245 -3 82 -3
82 23 88 15 3 65 16 112 29 47 13 126 33 175 45 120 28 125 30 125 41 0 6 -12
8 -28 4 -38 -8 -106 -13 -294 -21 l-156 -6 -26 50 c-14 28 -51 88 -82 133 -55
82 -56 83 -35 98 12 9 65 34 118 55 145 58 536 225 553 236 30 19 2 19 -61 0
-69 -21 -259 -65 -324 -75 -86 -13 -165 -38 -262 -86 -57 -27 -106 -49 -110
-50 -3 0 -14 24 -23 53 -9 29 -47 102 -84 162 -78 123 -85 139 -122 296 -15
63 -33 129 -40 147 -8 18 -14 40 -14 50 0 12 59 59 170 137 94 65 168 121 165
124 -3 3 -43 -13 -88 -36 -111 -56 -267 -122 -288 -122 -9 0 -23 10 -32 23
-44 66 -121 128 -224 182 -83 43 -81 13 -19 262 24 94 40 176 36 183 -4 7 -13
-6 -22 -32 -8 -24 -36 -103 -63 -177 -44 -121 -50 -132 -62 -115 -81 115 -112
150 -163 188 -68 50 -174 94 -303 127 -48 12 -87 25 -87 30 0 5 49 106 108
226 94 189 191 395 210 443 13 33 -27 -12 -56 -63 -17 -29 -76 -110 -131 -182
-111 -142 -157 -216 -205 -332 -20 -50 -37 -77 -49 -79 -9 -1 -58 25 -108 58
-93 62 -200 107 -254 108 -17 0 -41 7 -54 16 -28 20 -29 15 33 289 25 109 42
203 38 207 -5 5 -14 -11 -21 -34 -22 -72 -146 -354 -166 -376 -6 -7 -64 31
-69 44 -3 7 3 61 14 121 10 59 21 126 24 148 4 22 8 47 11 55 2 8 6 38 10 65
3 28 8 57 10 65 2 8 6 41 10 73 5 52 3 68 -8 50z m-247 -657 c31 -11 35 -17
38 -52 4 -65 -7 -70 -74 -35 -87 44 -164 72 -209 76 -53 4 -55 6 -25 15 40 13
231 10 270 -4z m-200 -164 l25 -10 -30 -8 c-51 -14 -187 -9 -220 8 l-30 16 25
6 c63 14 181 8 230 -12z m608 -82 c79 -56 120 -73 206 -90 43 -9 68 -21 95
-46 40 -37 36 -39 -54 -24 -33 5 -80 13 -105 16 -115 15 -254 67 -267 100 -10
27 16 94 36 94 10 0 50 -22 89 -50z m-928 -16 c177 -73 202 -75 364 -30 70 20
137 36 148 36 12 0 72 -36 134 -80 183 -129 262 -161 453 -185 61 -7 242 -48
237 -53 -3 -2 -29 -6 -58 -8 -29 -1 -71 -5 -93 -8 -22 -3 -69 -8 -105 -11 -36
-3 -82 -8 -103 -9 -38 -4 -63 -15 -36 -17 8 0 25 -2 39 -4 14 -3 43 -7 65 -11
88 -13 290 -14 347 0 51 12 60 11 86 -4 42 -26 109 -110 208 -260 105 -160
157 -213 309 -320 63 -45 116 -88 119 -98 3 -9 10 -55 16 -102 12 -88 20 -144
25 -170 2 -8 4 -22 5 -30 1 -10 4 -8 9 5 4 11 8 69 10 130 1 60 4 111 6 113
13 13 164 -149 179 -192 7 -19 5 -39 -6 -73 -9 -27 -46 -133 -83 -237 -36
-104 -64 -191 -61 -193 2 -2 48 75 101 172 54 96 100 173 102 171 2 -2 5 -118
6 -257 l3 -254 51 -135 c56 -150 128 -369 137 -415 3 -16 8 -48 11 -70 l7 -40
-46 69 c-26 39 -77 118 -114 178 -36 59 -71 108 -75 108 -5 0 -7 -6 -4 -12 3
-7 19 -44 36 -83 16 -38 42 -101 57 -140 16 -38 48 -104 73 -145 25 -41 44
-82 44 -91 -1 -8 -48 -87 -104 -175 -56 -87 -113 -183 -127 -212 -13 -29 -26
-51 -29 -49 -2 3 -6 25 -8 49 -2 23 -6 81 -10 128 -4 47 -8 92 -10 100 -1 8
-6 48 -10 88 -7 75 -24 108 -26 50 0 -18 -2 -53 -4 -78 -17 -235 -11 -384 17
-418 24 -28 -54 -385 -89 -410 -10 -7 -54 -34 -98 -61 -113 -67 -287 -183
-282 -187 2 -3 83 34 180 80 98 47 177 81 177 75 0 -45 -92 -167 -168 -223
-59 -43 -76 -46 -70 -11 9 42 -10 38 -22 -5 -12 -46 -15 -48 -173 -112 -151
-61 -190 -88 -245 -168 -24 -36 -54 -70 -66 -77 -13 -7 -97 -14 -206 -18 -102
-3 -194 -8 -205 -10 -11 -2 -28 -4 -37 -4 -39 -2 -15 -17 30 -19 26 -2 88 -10
137 -19 50 -9 123 -16 163 -15 39 0 72 -2 72 -5 0 -18 -116 -176 -163 -222
-82 -81 -157 -121 -257 -135 -73 -11 -300 -18 -300 -10 0 5 38 33 85 63 83 52
110 80 60 61 -53 -20 -246 -106 -355 -158 -156 -74 -266 -122 -279 -122 -5 0
-26 9 -45 21 -37 22 -52 9 -16 -13 11 -7 20 -16 20 -19 0 -25 -59 -9 -271 71
-131 49 -241 90 -245 90 -3 0 -1 -7 6 -15 7 -8 16 -15 21 -15 5 0 64 -34 132
-77 67 -42 139 -84 160 -93 53 -24 34 -32 -76 -32 -138 0 -204 26 -432 174
-212 137 -321 186 -450 203 -27 3 -55 11 -62 16 -7 6 -48 75 -91 152 -129 230
-135 241 -146 259 -6 10 -14 18 -18 18 -5 0 35 -120 67 -202 11 -28 -7 -22
-112 36 -54 30 -134 66 -178 81 l-80 27 -67 136 -67 137 -158 160 c-173 175
-250 268 -259 313 -4 19 5 59 26 118 120 337 131 370 105 339 -14 -16 -25 -34
-25 -38 0 -5 -25 -52 -56 -105 -31 -52 -65 -115 -76 -139 -11 -25 -22 -42 -26
-39 -6 7 -5 141 2 183 3 16 10 64 16 109 6 44 13 91 15 105 9 43 7 133 -3 159
-5 14 -26 54 -46 88 -20 35 -36 69 -36 75 0 7 41 64 90 127 49 63 90 120 90
125 0 6 -46 -36 -101 -92 -55 -57 -105 -103 -110 -103 -16 0 -110 201 -130
280 -22 85 -26 119 -15 117 7 -1 12 23 13 69 2 100 15 139 103 314 44 85 85
171 93 191 18 45 30 115 42 249 4 41 8 82 10 90 2 8 6 44 10 80 8 77 17 101
51 145 14 19 45 77 69 130 24 53 46 99 49 102 10 10 86 21 91 13 3 -5 -9 -75
-25 -156 -32 -159 -35 -184 -21 -169 9 11 90 217 111 283 16 50 28 62 69 67
137 17 201 26 230 31 64 10 16 23 -99 25 -154 4 -160 5 -160 39 0 31 10 40 59
60 28 11 36 11 39 1 3 -9 10 -7 26 7 11 11 57 32 101 47 160 55 174 66 291
247 l76 118 72 20 c39 12 82 25 95 31 33 14 35 7 13 -38 -29 -55 -73 -166 -68
-170 2 -2 41 56 86 129 45 73 93 143 107 155 41 39 192 123 221 123 15 1 107
-1 205 -4 204 -6 223 -11 373 -111 89 -60 131 -74 71 -24 -21 17 -36 33 -34
35 2 2 34 -7 72 -21 37 -14 70 -23 73 -20 7 6 8 5 -53 40 -27 15 -92 53 -144
83 l-94 56 39 17 c21 10 46 18 54 18 8 1 76 -24 150 -55z m1580 -181 c71 -29
200 -107 200 -122 0 -14 -36 -3 -126 39 -88 40 -184 100 -184 113 0 10 28 3
110 -30z m-3156 -200 c-27 -32 -60 -68 -74 -80 -27 -24 -231 -136 -237 -130
-5 5 46 77 82 118 55 62 131 110 210 135 67 21 69 16 19 -43z m3482 -137 c21
-20 117 -256 108 -265 -2 -2 -9 1 -16 6 -7 6 -24 14 -38 18 -51 15 -83 50
-166 177 -47 72 -88 136 -91 144 -7 19 176 -53 203 -80z m253 -148 c54 -53 60
-75 25 -88 -18 -7 -25 1 -57 66 -20 41 -33 74 -29 74 5 0 32 -23 61 -52z m128
-206 c7 -18 11 -32 8 -32 -12 0 -55 53 -49 61 10 17 27 4 41 -29z m-4663 -489
c-13 -56 -86 -182 -152 -261 -37 -45 -68 -76 -70 -69 -9 40 95 234 166 309 51
55 65 60 56 21z m-45 -368 c-35 -67 -49 -80 -49 -45 0 21 70 123 79 115 3 -3
-11 -35 -30 -70z m5147 -51 c41 -74 39 -81 -27 -100 l-41 -13 6 67 c6 56 11
97 15 110 3 9 15 -6 47 -64z m-5255 -96 c2 -53 -1 -65 -31 -131 l-28 -62 -7
48 c-9 60 -1 102 28 144 28 41 37 41 38 1z m5334 -97 c7 -13 8 -127 0 -176 -3
-22 -15 -71 -26 -108 -32 -108 -67 -104 -112 14 -28 74 -41 177 -26 217 6 15
28 27 71 41 73 23 85 24 93 12z m-5340 -541 c-3 -6 -10 -10 -16 -10 -10 0 -12
33 -2 44 9 9 26 -22 18 -34z m93 -156 c18 -31 32 -59 32 -62 0 -4 -18 -26 -39
-50 l-40 -43 -21 73 c-11 40 -25 83 -30 96 -13 30 -13 30 8 35 48 13 58 7 90
-49z m102 -186 c25 -57 27 -86 16 -188 -14 -143 -19 -163 -36 -167 -13 -3 -17
-18 -19 -61 -3 -50 -6 -95 -10 -127 -1 -12 -70 64 -108 119 -30 43 -31 61 -13
238 7 70 16 108 28 122 45 53 106 116 112 116 4 0 18 -24 30 -52z m-290 -81
c-5 -23 -7 -13 -7 38 0 57 1 63 7 32 4 -21 4 -53 0 -70z m5285 -247 c-7 -88
-15 -124 -44 -205 -29 -80 -101 -195 -122 -195 -29 0 17 177 81 316 58 126 91
158 85 84z m-5084 -361 c27 -34 48 -89 34 -89 -7 0 -95 136 -95 145 0 11 28
-15 61 -56z m149 -190 c0 -18 -18 -9 -23 12 -4 16 -3 18 9 8 8 -6 14 -15 14
-20z m243 -206 c10 -13 15 -23 10 -23 -14 0 -113 96 -113 110 0 13 72 -47 103
-87z m4273 -96 c-25 -43 -56 -77 -56 -61 0 14 75 122 78 112 2 -4 -8 -28 -22
-51z m-4121 -56 c40 -49 75 -115 136 -254 66 -152 47 -128 -66 83 -42 80 -90
162 -106 182 -54 69 -23 60 36 -11z m-63 -200 c33 -62 58 -114 55 -117 -13
-14 -157 149 -157 179 0 22 22 58 34 54 5 -2 36 -54 68 -116z m3777 18 c-12
-35 -23 -70 -25 -76 -2 -7 -31 -26 -65 -43 -96 -46 -128 -72 -208 -170 -88
-108 -142 -160 -164 -160 l-20 0 20 23 c12 12 67 94 123 182 119 188 162 231
274 279 45 18 82 32 84 31 1 -1 -7 -31 -19 -66z m107 10 c19 -21 19 -23 -27
-49 -13 -7 -15 -4 -13 18 1 15 2 33 3 40 1 18 15 15 37 -9z m-3403 -165 c61
-19 121 -39 132 -44 11 -5 33 -13 49 -17 22 -7 38 -25 63 -69 18 -32 37 -71
42 -86 l10 -28 -52 6 c-155 17 -248 73 -329 198 -36 56 -45 76 -33 76 3 0 56
-16 118 -36z m3251 -98 c-5 -14 -55 -50 -104 -76 l-25 -13 19 22 c17 18 103
81 112 81 2 0 1 -6 -2 -14z m-2934 -311 c19 -3 38 -9 43 -14 4 -4 -1 -31 -11
-60 l-18 -53 -57 70 c-31 38 -57 72 -57 75 0 3 15 1 33 -3 17 -5 48 -12 67
-15z m273 -41 c37 -5 60 -17 95 -47 74 -64 75 -65 56 -149 -27 -118 -29 -120
-122 -93 -42 13 -159 81 -195 115 -10 9 32 172 47 182 6 5 25 6 41 4 17 -3 52
-8 78 -12z m1862 -94 c-34 -27 -45 -30 -107 -30 -86 0 -260 20 -272 31 -6 5 0
9 15 10 178 4 333 10 335 12 2 2 18 4 35 5 l32 3 -38 -31z m-1455 -204 c0 -2
-17 -4 -37 -5 -21 0 -57 -3 -80 -5 -50 -5 -51 -1 -38 76 l6 38 74 -50 c41 -28
75 -52 75 -54z m1018 67 c17 -33 33 -116 25 -124 -8 -8 -203 110 -203 123 0 9
35 15 107 17 50 1 64 -2 71 -16z m225 -23 c9 -8 -56 -50 -78 -50 -14 0 -37 54
-27 64 7 8 94 -4 105 -14z m-440 -42 c89 -74 88 -72 32 -65 -76 11 -269 56
-263 63 6 6 143 43 161 43 10 1 42 -18 70 -41z"/>
<path d="M3521 5658 c-10 -41 -24 -119 -36 -203 -6 -40 -21 -131 -29 -172 -3
-11 -8 -43 -12 -70 -3 -26 -8 -57 -10 -67 -2 -11 -8 -54 -14 -96 -6 -42 -13
-87 -15 -100 -3 -13 -7 -42 -10 -65 -20 -145 -29 -194 -41 -223 -28 -68 -146
-146 -221 -144 -123 1 -265 172 -288 345 -3 23 -8 51 -10 62 -2 11 -4 107 -4
213 -1 110 -5 192 -10 192 -19 0 -96 -67 -123 -105 -38 -56 -78 -238 -103
-465 -19 -175 -25 -186 -105 -216 -173 -62 -295 9 -325 186 -4 25 -9 54 -11
64 -2 11 -5 50 -6 87 -2 75 -8 76 -60 14 -82 -97 -123 -233 -133 -435 -2 -48
-1 -49 91 -126 95 -80 125 -201 88 -360 -30 -132 -22 -191 51 -348 18 -39 35
-80 39 -90 11 -32 14 -15 20 101 6 145 25 183 109 218 48 20 92 26 202 30 113
3 130 -6 175 -93 19 -36 40 -68 47 -70 7 -2 25 23 42 56 33 66 90 122 125 122
12 0 47 -4 77 -10 30 -5 70 -12 89 -15 188 -31 303 -106 371 -241 18 -36 36
-67 40 -70 4 -2 21 25 38 61 36 76 88 136 147 171 45 26 256 101 314 111 113
19 154 -5 209 -121 17 -36 35 -66 41 -66 5 0 19 19 31 42 49 95 86 126 149
122 253 -14 284 -22 318 -83 11 -20 23 -61 25 -91 10 -105 19 -185 22 -188 1
-2 24 48 50 110 72 169 78 228 39 393 -27 120 30 245 151 331 55 39 73 63 70
93 -5 36 -18 123 -21 139 -26 134 -38 184 -53 217 -19 43 -81 133 -93 134 -6
1 -11 -22 -24 -114 -24 -173 -58 -244 -134 -282 -52 -27 -94 -29 -175 -8 -97
26 -116 51 -121 169 -8 195 -34 331 -86 446 -40 90 -72 133 -116 157 l-37 21
-2 -148 c-1 -170 -17 -308 -44 -396 -38 -122 -132 -230 -222 -255 -69 -19
-161 6 -215 59 -48 47 -65 88 -77 187 -6 53 -16 124 -21 155 -2 14 -6 45 -9
70 -3 25 -8 56 -10 70 -3 14 -7 41 -10 60 -24 187 -47 324 -72 443 -16 74 -32
127 -39 127 -6 0 -16 -19 -23 -42z m101 -1260 c47 -27 80 -77 80 -123 0 -69
-102 -205 -154 -205 -52 0 -141 108 -154 186 -18 116 120 202 228 142z"/>
<path d="M4340 3401 c-14 -4 -34 -20 -45 -37 -19 -28 -20 -45 -20 -228 l0
-198 -28 34 c-15 18 -82 103 -148 188 -66 85 -123 157 -125 160 -7 7 -154 6
-154 -1 0 -4 12 -9 28 -12 59 -13 57 -6 57 -261 0 -150 -4 -239 -10 -245 -6
-6 -23 -12 -38 -13 -15 -1 -27 -6 -27 -10 0 -4 45 -8 100 -8 55 0 102 0 105 0
3 0 5 3 5 8 0 7 -4 8 -34 11 -8 0 -18 11 -22 24 -10 28 -12 377 -3 377 4 0 84
-97 179 -215 95 -118 175 -215 180 -215 4 0 8 136 9 302 0 166 5 306 10 311 8
8 32 15 60 16 8 1 11 4 7 8 -9 9 -56 11 -86 4z"/>
<path d="M2301 3339 c-51 -16 -124 -95 -150 -164 -62 -166 -1 -327 149 -395
25 -11 124 -12 153 -1 l27 11 0 -58 c0 -63 -5 -74 -38 -91 -18 -10 -28 -9 -52
2 -19 10 -27 11 -24 3 8 -21 49 -40 91 -42 33 -2 46 3 65 23 22 24 23 32 28
226 l5 201 25 13 c31 16 34 15 -73 17 -89 2 -121 -7 -68 -17 36 -7 41 -25 41
-143 0 -107 -5 -115 -80 -122 -69 -6 -122 29 -155 101 -86 187 -12 417 133
417 70 0 109 -26 142 -95 l30 -60 -2 70 c0 39 -4 81 -8 95 -7 21 -9 23 -15 8
-8 -20 -35 -24 -52 -7 -15 15 -130 21 -172 8z"/>
<path d="M3477 3333 c-2 -5 -31 -80 -62 -168 -32 -88 -61 -163 -65 -167 -3 -4
-20 -3 -36 4 -17 6 -39 8 -50 3 -15 -6 -16 -8 -4 -12 8 -3 30 -11 47 -19 l33
-13 -15 -43 c-26 -74 -44 -106 -73 -127 l-27 -20 78 -1 c52 0 77 4 77 12 0 6
-3 8 -6 5 -4 -3 -16 -2 -26 4 -17 9 -19 17 -14 50 9 59 37 111 55 104 9 -4 56
-20 104 -37 71 -25 91 -36 98 -56 13 -33 2 -62 -22 -62 -10 0 -19 -4 -19 -10
0 -6 38 -10 95 -10 52 0 95 2 95 5 0 3 -11 10 -25 15 -13 5 -31 22 -38 37 -18
35 -177 476 -177 491 0 14 -17 25 -23 15z m37 -263 c21 -58 42 -115 48 -127 6
-13 9 -25 6 -28 -5 -6 -167 52 -181 64 -4 4 8 47 27 97 19 49 37 98 41 109 8
26 13 18 59 -115z"/>
<path d="M2674 3319 c-2 -4 9 -9 25 -12 19 -4 32 -14 37 -29 4 -13 7 -122 6
-243 0 -215 -1 -220 -23 -238 -12 -10 -28 -16 -36 -13 -7 3 -13 1 -13 -4 0 -6
46 -10 110 -10 61 0 110 2 110 5 0 2 -14 8 -32 13 -39 10 -44 27 -43 147 0 89
1 90 25 93 23 3 37 -14 124 -143 106 -158 139 -189 219 -204 40 -7 46 -6 36 5
-6 8 -17 14 -23 14 -22 0 -72 63 -163 201 l-90 137 38 16 c99 44 116 169 33
233 -29 22 -45 26 -93 26 -32 -1 -68 -6 -80 -12 -18 -10 -23 -9 -29 6 -6 15
-19 18 -70 18 -35 1 -65 -2 -68 -6z m272 -64 c22 -14 41 -70 36 -105 -9 -53
-57 -90 -124 -93 l-43 -2 0 100 0 100 35 11 c41 13 63 11 96 -11z"/>
<path d="M4454 3319 c-2 -4 10 -9 26 -13 18 -3 34 -14 38 -26 11 -30 8 -468
-4 -480 -5 -5 -19 -11 -31 -13 -13 -2 -26 -7 -30 -11 -5 -4 66 -6 157 -4 147
3 170 6 206 25 89 48 127 120 128 248 1 72 -3 99 -20 135 -24 51 -73 104 -118
127 -37 19 -124 18 -172 -2 -42 -17 -44 -18 -43 -7 4 23 -6 28 -67 27 -36 0
-68 -3 -70 -6z m305 -50 c48 -29 59 -42 83 -96 29 -65 32 -171 7 -237 -33 -89
-95 -136 -176 -135 -83 1 -78 -14 -78 237 l0 224 25 13 c37 21 100 18 139 -6z"/>
<path d="M2872 2588 c-6 -7 -12 -66 -14 -130 -3 -128 -12 -148 -62 -153 -18
-2 -32 5 -46 22 -17 22 -20 41 -20 119 0 80 2 93 18 97 9 3 -5 5 -31 6 -41 1
-46 -1 -35 -13 10 -9 14 -36 13 -87 -2 -121 12 -151 79 -163 39 -7 80 11 99
43 13 22 17 53 17 133 0 105 4 121 30 131 9 3 5 6 -11 6 -15 1 -31 -5 -37 -11z"/>
<path d="M3442 2577 c-6 -7 -13 -57 -14 -111 l-3 -97 -70 91 c-67 88 -70 90
-110 89 -34 0 -37 -2 -17 -9 24 -10 24 -11 22 -150 -1 -60 -5 -88 -15 -96 -10
-8 -3 -10 30 -10 37 0 42 2 33 13 -6 8 -12 54 -13 105 l-2 91 21 -25 c49 -57
83 -99 116 -142 19 -25 37 -45 40 -46 3 0 5 63 5 141 0 77 2 144 5 148 3 4 12
11 20 14 9 3 5 6 -11 6 -15 1 -31 -5 -37 -12z"/>
<path d="M4630 2580 c-11 -7 -14 -32 -15 -109 0 -56 -1 -101 -2 -101 -2 0 -34
41 -74 90 -67 85 -72 90 -107 89 -20 -1 -29 -3 -20 -6 22 -6 27 -37 26 -151 0
-86 -2 -94 -22 -102 -15 -7 -7 -8 32 -7 42 2 49 4 37 13 -13 10 -15 30 -13
103 l3 91 85 -107 85 -107 5 148 c5 137 7 150 25 157 18 7 18 8 -5 8 -14 0
-32 -3 -40 -9z"/>
<path d="M2132 2520 c-1 -31 0 -33 10 -13 6 12 21 24 33 27 49 12 51 6 49
-152 -2 -175 0 -160 -21 -165 -10 -3 9 -5 42 -5 41 -1 54 2 40 8 -20 7 -21 16
-20 161 l0 154 24 1 c14 1 35 -9 47 -21 l23 -23 -1 31 -1 32 -112 0 -111 0 -2
-35z"/>
<path d="M2471 2542 c-50 -25 -73 -61 -73 -114 0 -106 75 -166 162 -132 29 12
44 27 60 58 57 118 -41 241 -149 188z m91 -20 c55 -56 37 -208 -26 -220 -63
-13 -101 43 -94 136 5 61 31 99 43 63 6 -21 29 -28 39 -12 3 5 -3 11 -14 14
-11 3 -20 12 -20 21 0 13 7 15 33 11 17 -4 35 -9 39 -13z"/>
<path d="M3605 2478 c-29 -80 -31 -83 -60 -80 l-30 2 28 -12 28 -13 -23 -46
-24 -46 33 0 c27 0 30 2 16 12 -14 11 -15 16 -3 44 14 34 17 34 87 5 34 -14
41 -32 23 -50 -8 -8 3 -11 35 -10 39 0 44 2 30 12 -9 7 -32 54 -50 106 -18 51
-39 108 -46 126 l-14 34 -30 -84z m55 -72 l18 -54 -44 15 c-24 8 -44 18 -44
22 0 4 7 29 16 56 19 54 23 51 54 -39z"/>
<path d="M4035 2550 c-11 -4 -36 -31 -55 -59 -19 -28 -37 -51 -40 -51 -3 0
-20 25 -38 55 -29 48 -37 55 -65 55 -24 0 -28 -3 -17 -10 20 -13 22 -230 2
-245 -10 -8 -3 -11 27 -11 31 0 38 3 30 12 -12 14 -19 194 -8 194 4 0 20 -20
36 -45 15 -25 31 -45 34 -45 4 0 21 23 39 50 18 28 35 49 37 46 3 -3 5 -59 5
-126 -1 -124 7 -150 44 -150 14 0 13 2 0 16 -13 12 -15 40 -15 152 1 75 6 142
11 149 12 15 -2 22 -27 13z"/>
<path d="M4122 2546 c-3 -5 -1 -6 4 -3 20 12 34 -11 37 -61 2 -46 0 -52 -18
-53 -15 -1 -16 -2 -4 -6 33 -8 28 -121 -5 -133 -11 -3 33 -6 97 -6 65 1 117 4
117 8 0 17 -21 58 -29 58 -6 0 -8 -7 -4 -16 8 -23 -14 -34 -69 -34 l-48 0 0
60 0 60 42 -4 c23 -2 47 -11 53 -20 10 -12 12 -6 13 32 0 26 -2 40 -5 32 -9
-23 -24 -30 -65 -30 l-38 0 0 54 0 55 48 -3 c26 -2 52 -4 59 -5 6 0 14 -9 16
-18 3 -11 5 -7 6 10 1 15 -4 27 -11 28 -101 4 -191 2 -196 -5z"/>
<path d="M4701 2520 c0 -31 1 -32 9 -12 5 12 15 23 22 23 7 1 23 3 35 4 12 1
23 -3 25 -9 3 -9 2 -193 -1 -278 -1 -16 -8 -28 -18 -31 -10 -3 7 -5 37 -6 42
0 51 2 38 10 -16 9 -18 28 -18 158 0 124 3 150 15 155 19 7 65 -10 65 -24 0
-22 15 -9 16 14 2 25 2 25 -112 28 l-114 3 1 -35z"/>
<path d="M2963 2539 c14 -9 17 -26 17 -119 0 -80 -4 -112 -14 -123 -12 -12 -7
-14 37 -14 29 0 45 2 37 5 -8 3 -18 9 -21 14 -10 15 -3 102 8 105 6 2 35 -30
63 -72 29 -43 62 -80 76 -85 33 -13 55 -12 29 1 -26 13 -123 161 -109 166 30
10 47 33 47 62 0 51 -21 64 -110 67 -56 2 -73 0 -60 -7z m117 -24 c14 -17 17
-62 4 -75 -5 -5 -23 -11 -41 -14 l-31 -6 1 48 c1 26 7 50 12 54 16 12 42 9 55
-7z"/>
<path d="M3190 1923 c-14 -9 -26 -17 -26 -17 -1 -1 -5 -12 -9 -26 l-8 -25 26
27 c17 18 33 26 47 23 82 -16 63 -108 -43 -206 -25 -24 -35 -39 -27 -40 128
-10 170 -1 170 39 0 12 -3 13 -8 5 -8 -12 -122 -24 -122 -13 0 3 16 22 36 41
61 59 81 101 75 159 -1 17 -50 50 -73 50 -7 0 -25 -8 -38 -17z"/>
<path d="M3400 1914 c-56 -48 -58 -184 -3 -238 29 -29 41 -31 77 -15 70 32 78
203 13 258 -27 22 -56 20 -87 -5z m80 -24 c12 -29 15 -133 5 -180 -4 -24 -29
-50 -47 -50 -34 0 -53 149 -29 223 16 48 52 52 71 7z"/>
<path d="M3613 1930 c-22 -9 -43 -39 -43 -61 0 -6 9 0 20 13 45 59 119 -2 91
-75 -5 -13 -35 -51 -66 -85 -30 -33 -52 -62 -48 -64 4 -2 41 -4 82 -3 73 0 75
1 82 28 6 22 5 26 -5 18 -14 -12 -98 -19 -106 -9 -3 3 9 21 25 40 55 60 75 95
75 130 0 54 -56 89 -107 68z"/>
<path d="M3808 1921 c-14 -11 -28 -30 -31 -42 l-6 -21 19 20 c30 32 59 37 83
14 40 -41 22 -96 -59 -182 -24 -25 -38 -47 -33 -51 13 -7 133 -4 147 5 5 3 12
15 15 26 4 15 2 18 -6 11 -13 -10 -117 -21 -117 -12 0 3 19 26 41 51 67 74 84
130 52 168 -27 31 -74 37 -105 13z"/>
</g>
</svg>
